<svg xmlns:xlink="http://www.w3.org/1999/xlink" xmlns="http://www.w3.org/2000/svg" viewBox="0 0 344.35260141776297 350" preserveAspectRatio="xMidYMid meet" class="css-116ckqy" id="cfaechbd" width="344.35260141776297"  height="350" ><defs id="SvgjsDefs1320"></defs><g id="SvgjsG1321" featurekey="rootContainer" transform="matrix(1.8510763795775054,0,0,1.8510763795775054,0.0006469912463332708,0.0003193029786644757)" fill="#111111"><path xmlns="http://www.w3.org/2000/svg" d="M17.914 148.907zM22.657 154.94a90.586 90.586 0 0 0 5.861 6.251c6.914 6.805 15.159 12.525 24.004 16.851 3.259 1.526 6.265 3.107 9.787 4.468.88.338 1.779.7 2.724 1.026.953.302 1.941.604 2.974.903 1.027.321 2.122.549 3.267.786 1.146.23 2.336.493 3.614.624a91.24 91.24 0 0 1-18.434-5.99 93.833 93.833 0 0 1-16.873-9.842c-10.548-7.727-19.57-17.648-26.16-28.989-.272-.339-.685-.985-1.18-1.808l-.796-1.348-.803-1.551c-.534-1.076-1.149-2.168-1.62-3.226a71.281 71.281 0 0 0-1.326-2.748c2.048 5.101 4.412 9.563 7.059 13.806a93.473 93.473 0 0 0 3.869 5.697c-.192-.259-.392-.511-.583-.771a95.012 95.012 0 0 0 4.6 5.841l.016.02zM18.039 149.078l-.125-.17.125.17zM1.335 106.042l-.483-3.875c.256 2.365.553 5.008 1.096 7.654l-.327-1.879a23.961 23.961 0 0 1-.286-1.9zM85.812 185.575c6.652.673 13.628.472 20.461-.609 6.837-1.077 13.524-2.987 19.741-5.449-11.45 4.503-23.602 6.506-35.49 6.171-1.591-.025-3.159 0-4.712-.113z" fill="#111111"></path><path xmlns="http://www.w3.org/2000/svg" d="M46.426 171.967l-.259-.165c.087.055.172.111.259.165zM46.167 171.802zM43.653 170.135zM56.077 177.284A83.837 83.837 0 0 0 73.2 183.1c-9.688-2.21-18.805-6.109-26.774-11.133 3.06 1.947 6.277 3.749 9.651 5.317zM177.002 107.094c.098-1.58.296-3.238.346-4.027.594-5.071.77-9.401.745-13.745-.11-.783-.425-2.25-.55-3.918-.153-1.672-.378-3.309-.568-4.924-.289-1.601-.538-3.186-.854-4.74 2.275 11.617 2.237 23.279.144 34.282a94.97 94.97 0 0 1 .737-2.928z" fill="#111111"></path><path xmlns="http://www.w3.org/2000/svg" d="M.887 83.482c.848-6.9 2.653-13.626 4.37-18.107l-.695 3.28c.429-.961 1.122-3.194 2.067-5.557l.682-1.802.753-1.747c.5-1.131.92-2.203 1.363-3.025-.303.771-.595 1.602-.947 2.436-.345.837-.732 1.687-1.101 2.542l1.514-3.409A111.863 111.863 0 0 0 4.954 69.8c-1.133 4.352-2.029 8.926-2.511 13.032-.14 1.024-.189 2.024-.28 2.978-.067.954-.183 1.864-.192 2.724-.042 1.719-.1 3.224-.071 4.428.105 2.409.25 3.61.459 2.939.411-1.333.403-8.188 1.837-16.767.767-4.276 1.868-8.966 3.362-13.561 1.483-4.599 3.427-9.058 5.44-12.992l-.592 1.292-.545 1.331-1.116 2.691-1.024 2.78-.521 1.402c-.153.476-.308.954-.461 1.434-1.32 3.807-2.307 7.816-3.167 11.857l-.559 3.052c-.205 1.014-.292 2.046-.444 3.067-.318 2.041-.434 4.097-.611 6.129-.199 4.074-.239 8.098.13 11.946-.015-.914-.03-1.726-.017-2.512l.115-2.355c.048-.809.039-1.667.115-2.65.07-.983.134-2.091.19-3.402.391-6.608 1.572-13.15 3.408-19.481 1.75-6.358 3.814-11.957 6.889-17.03l.801-1.526c.542-1.024.993-2.034 1.566-3.064.653-1.13 1.278-1.976 1.784-2.751.521-.767.963-1.441 1.469-2.095l3.682-5.082c.075-.009-.022.185-.2.473a28.962 28.962 0 0 1 1.959-2.49c.755-.875 1.488-1.803 2.109-2.569.146-.007.288-.011.623-.251 8.65-9.197 19.295-16.692 31.291-21.417l2.667-1.039 2.7-.899 1.343-.448 1.36-.38 2.71-.753c1.55-.373 3.12-.751 4.721-1.091l2.437-.426c.819-.141 1.642-.3 2.484-.378 1.674-.201 3.134-.625 3.921-.729 4.369-.249 8.73-.199 13.849.216.397.007 1.015.043 1.732.082.717.041 1.537.061 2.332.134.932.21 1.927.418 2.971.621 6.369.988 12.527 2.754 18.386 5.103l-.007-.028 2.244.894 2.29 1.058c1.571.684 3.11 1.559 4.7 2.383.798.407 1.554.904 2.338 1.354.77.474 1.576.894 2.32 1.412 1.508 1.002 3.037 1.961 4.446 3.032a99.912 99.912 0 0 1 6.6 5.198c.046.042.094.081.14.122l.042.038 1.457 1.322 1.394 1.391 1.395 1.392c.462.467.89.967 1.337 1.449-.216-.35-.208-.491-.2-.63-.689-.66-1.504-1.441-2.309-2.21 1.343 1.222 2.515 2.327 3.477 3.229.371.474.776.94 1.16 1.449l1.186 1.566 1.261 1.629 1.255 1.752c2.226 2.838 4.191 5.874 6.057 8.97.864 1.588 1.817 3.131 2.586 4.774l1.213 2.436 1.092 2.497c.314.533.192.022.231-.068 1.225 2.962 2.21 6.042 3.102 9.146a88.212 88.212 0 0 1 3.408 17.211c.225 1.378.321 2.772.52 4.153l-.123 2.924c-.001 1.103.057 2.206.01 3.311l-.128 3.326c-.016.75-.124 1.569-.187 2.459-.084.888-.128 1.846-.256 2.856l-.412 3.192c-.132 1.119-.387 2.269-.583 3.471a90.635 90.635 0 0 1-4.312 15.482c-.242.826-.427 1.486-.592 1.855-.627 1.501-1.296 2.954-1.942 4.385-.723 1.394-1.386 2.788-2.127 4.108a86.09 86.09 0 0 1-7.949 12.379c-.336.439-.649.885-.987 1.297l-.998 1.206c-.66.779-1.25 1.558-1.876 2.234-1.251 1.352-2.301 2.606-3.286 3.549-1.128 1.178-1.027 1.233-.246.665a35.07 35.07 0 0 0 1.608-1.262l2.122-1.914c.776-.677 1.519-1.441 2.235-2.161.708-.725 1.416-1.386 1.962-1.984 1.101-1.191 1.824-1.926 1.67-1.599-1.777 3.345-5.013 7.471-9.743 12.035-2.413 2.227-5.128 4.647-8.339 6.98-1.566 1.221-3.307 2.338-5.082 3.558-1.834 1.123-3.708 2.353-5.757 3.445-4.484 2.442 3.365-1.475 3.577-1.512a22.87 22.87 0 0 1-2.377 1.64c-1.478.786-2.943 1.597-4.474 2.273-.895.411-1.774.855-2.679 1.239l-2.729 1.122 1.444-.568c2.952-1.173 5.711-2.555 8.202-3.922-.936.566-1.96 1.221-3.082 1.812-1.203.622-2.448 1.302-3.697 1.909l-3.625 1.686c12.968-4.711 24.885-12.507 34.319-22.67 4.723-5.066 8.935-10.631 12.369-16.651a93.904 93.904 0 0 0 8.288-18.999c-3.154 9.93-8.071 19.052-13.981 26.765 10.744-14.507 17.15-32.293 17.999-50.636-.001 1.011-.101 2.018-.168 3.025-.083 1.007-.123 2.018-.241 3.022-.257 2.005-.441 4.021-.827 6.009-.624 4-1.636 7.931-2.782 11.815 2.262-7.021 3.613-14.424 4.145-21.869.554-7.451.092-14.947-1.057-22.211 1.974 9.622 2.301 20.524.619 31.298 1.182-6.949 1.482-14.112 1.028-21.214-.102-2.713-.422-5.407-.685-7.901-.377-2.476-.662-4.762-1.027-6.611 1.445 6.826 2.015 12.648 2.293 18.136-.267-11.977-2.748-24.112-7.62-35.511 2.659 6.191 4.842 12.851 6.175 19.698 1.34 6.84 1.897 13.838 1.58 20.57-.015-.788.018-1.575-.028-2.366l-.107-2.391c.287 10.85-1.384 21.604-4.696 31.717-1.662 5.056-3.715 9.969-6.2 14.644a95.521 95.521 0 0 1-8.56 13.316c3.673-4.29 7.551-10.354 10.646-17.015 3.081-6.675 5.368-13.894 6.941-20.199-2.314 11.322-6.907 22.494-13.571 32.471-6.646 9.985-15.351 18.764-25.423 25.502-10.06 6.759-21.474 11.437-33.187 13.748a94.608 94.608 0 0 1-17.657 1.809 94.462 94.462 0 0 1-17.361-1.515l3.005.571c1.002.19 2.018.295 3.026.445 2.016.324 4.055.446 6.087.633 4.073.229 8.168.306 12.25-.005 4.089-.217 8.152-.827 12.196-1.572 2.006-.456 4.036-.829 6.017-1.414.994-.278 2-.521 2.987-.83l2.955-.958c-1.492.462-3.062 1.074-4.739 1.523l-2.101.618a91.772 91.772 0 0 0 12.91-4.496 89.46 89.46 0 0 0 5.651-2.705 96.653 96.653 0 0 1-10.714 4.872 98.407 98.407 0 0 1-21.66 5.382c-1.11.176-2.122.231-3.029.326l-2.428.24c-1.429.113-2.484.164-3.222.245-1.477.147-1.687.284-1.099.397.587.113 1.971.203 3.673.251 1.697-.01 3.71-.101 5.541-.268 18.397-1.887 35.288-9.107 48.824-19.916 13.545-10.811 23.919-25.172 29.701-41.467.363-.946.642-1.922.944-2.89.293-.971.617-1.932.882-2.912.491-1.97 1.072-3.917 1.448-5.917l.619-2.985.487-3.012.241-1.507.172-1.517.342-3.034c.698-8.114.422-16.315-.812-24.363-.66-4.554-1.82-9.961-3.315-14.777l-1.15-3.484c-.4-1.107-.825-2.151-1.203-3.133l-.557-1.415-.571-1.271-.981-2.124c-3.134-6.359-7.072-12.424-11.682-18.065-4.605-5.643-9.896-10.868-15.861-15.418l-2.244-1.703-2.327-1.608-1.166-.806-1.203-.756-2.417-1.508c-3.295-1.904-6.67-3.739-10.228-5.261-3.521-1.598-7.206-2.895-10.957-4.055-1.895-.52-3.781-1.1-5.724-1.499-.968-.209-1.928-.463-2.907-.638l-2.944-.521C100.363.01 93.04-.285 85.724.265 78.412.83 71.069 2.218 64.028 4.614l-2.635.913c-.881.297-1.73.682-2.597 1.019-.858.359-1.735.673-2.577 1.069l-2.532 1.173c-.852.376-1.675.808-2.496 1.245l-2.469 1.297-2.402 1.412c-.8.472-1.606.933-2.372 1.458l-2.324 1.528c-.782.497-1.506 1.078-2.261 1.612-.741.554-1.51 1.07-2.226 1.654l-2.157 1.737c-.729.565-1.417 1.178-2.103 1.792l-2.063 1.83-1.971 1.919c-.656.639-1.319 1.271-1.93 1.951-5.031 5.298-9.451 11.078-13.066 17.194A99.518 99.518 0 0 0 5.18 64.379C.805 77.299-.45 90.402.134 102.237c-.126-4.872-.147-11.859.753-18.755zm141.132 90.446a96.807 96.807 0 0 0 8.765-6.389c-2.84 2.339-5.758 4.499-8.765 6.389zm40.217-54.282c-.299.901-.552 1.791-.882 2.641l-.957 2.523-.466 1.248-.513 1.231a108.54 108.54 0 0 0-.997 2.501 97.307 97.307 0 0 1-6.587 13.35c-2.521 4.275-5.443 8.281-8.565 12.04-1.542 1.899-3.222 3.66-4.874 5.421l-2.581 2.523c-.847.848-1.774 1.604-2.652 2.404-.736.64-1.478 1.266-2.225 1.882a90.696 90.696 0 0 0 7.896-7.312 89.808 89.808 0 0 1-11.689 10.188c-1.036.722-2.037 1.496-3.113 2.176l-3.247 2.069-3.43 1.949c-1.167.648-2.399 1.224-3.634 1.855a74.206 74.206 0 0 1 2.685-1.508c1.021-.567 2.092-1.237 3.138-1.85 1.054-.601 2.012-1.261 2.808-1.813.796-.552 1.42-1.01 1.745-1.306-.464.315-.936.617-1.406.924a92.477 92.477 0 0 0 1.507-1.015c-.021.023-.065.059-.101.091 10.932-7.466 20.245-17.277 27.223-28.462 7.009-11.175 11.57-23.781 13.46-36.601-.41 5.142-1.352 9.248-2.543 12.851zm-6.654-65.352zm-8.448-12.698a92.37 92.37 0 0 1 7.773 14.352c.25.549.486 1.106.719 1.664 4.963 12.154 7.221 25.192 6.89 38.036.084-4.25-.198-8.498-.669-12.71-.533-4.854-1.518-9.65-2.824-14.341-2.562-9.407-6.723-18.323-12.005-26.451.485.67.996 1.396 1.525 2.166a32.826 32.826 0 0 1 1.59 2.463l-.638-1.109-.689-1.079-1.378-2.156c-.938-1.424-1.955-2.796-2.934-4.192-1.062-1.334-2.069-2.712-3.174-4.011-.836-.953-1.637-1.938-2.485-2.879 2.992 3.155 5.801 6.54 8.299 10.247zM96.886 1.152c1.467.078 2.937.221 4.407.331 1.204.101 2.402.279 3.588.413.356.015.732.039 1.204.092.471.065 1.034.186 1.769.354 5.469.912 10.459 2.283 14.001 3.699 6.798 2.573 13.123 5.774 18.86 9.471 5.739 3.69 10.889 7.887 15.246 12.471 2.008 2.179 1.422 1.704.315.646l1.662 1.764c-.736-.734-1.459-1.478-2.206-2.196l-2.301-2.09c.56.49 1.918 1.663 2.845 2.522-7.389-7.539-16.026-13.799-25.375-18.404-9.356-4.603-19.431-7.446-29.502-8.581 1.618.18 2.412.22 3.168.24-1.085-.127-2.173-.301-3.274-.401-1.479-.097-2.955-.229-4.423-.301l-4.36-.103c1.444-.001 2.907.039 4.376.073z" fill="#111111"></path><path xmlns="http://www.w3.org/2000/svg" d="M115.942 184.69l.426-.125c-.446.12-.885.252-1.334.366.304-.076.609-.15.908-.241zM160.424 146.151c4.235-5.587 7.977-12.263 10.366-18.014l-.029.006c-6.061 14.322-15.892 26.66-28.16 35.744a159.12 159.12 0 0 0 6.418-4.703c2.698-2.82 7.213-7.406 11.405-13.033zM35.35 162.846c7.172 6.412 15.821 11.992 25.448 15.751 3.754 1.413 7.585 2.651 11.503 3.523 1.944.502 3.929.812 5.899 1.181.987.175 1.987.272 2.979.412.994.129 1.986.275 2.987.333-4.519-.501-9.005-1.251-13.372-2.44-4.364-1.185-8.642-2.65-12.769-4.449a97.4 97.4 0 0 1-11.894-6.314c-3.786-2.408-7.376-5.097-10.781-7.997zM123.877 174.277l-2.219.871-2.266.756c-1.5.54-3.047.944-4.59 1.373 1.551-.39 3.111-.754 4.624-1.254l2.283-.698 2.23-.815c-.086-.044-.594.055-.062-.233zM97.683 179.965c-1.16.099-2.326.09-3.494.102-1.168.014-2.338.039-3.509-.038l1.576.148c.482.031.916.068 1.295.113 1.381-.118 2.752-.151 4.132-.325zM51.441 169.209c1.341.787 2.765 1.48 4.178 2.244.354.194.996.415 1.801.709-1.721-.739-3.37-1.655-5.046-2.505-.83-.441-1.629-.935-2.443-1.395-.812-.464-1.621-.927-2.389-1.445l.937.626.977.584 1.985 1.182z" fill="#111111"></path></g><g id="SvgjsG1322" featurekey="symbolFeature-0" transform="matrix(2.314814814814815,0,0,2.314814814814815,98.42592592592592,42.166666666666664)" fill="#111111"><g xmlns="http://www.w3.org/2000/svg" fill="#111111"><path d="M15.659,32.307C15.663,32.293,16.098,31,17.609,31c0.859,0,1.8,1.141,2.062,1.543c0,0,0.001,0,0.001,0.001   C19.838,32.8,21.32,35,23.414,35c2.362,0,3.554-1.762,3.854-2.693c0.004-0.013,0.419-1.208,1.808-1.292   c0.831,0.082,1.709,1.14,1.963,1.526c0,0,0,0,0,0.001C31.201,32.794,32.686,35,34.781,35c2.362,0,3.554-1.762,3.854-2.693   C38.64,32.293,39.074,31,40.586,31c0.859,0,1.802,1.144,2.063,1.545l0,0C42.818,32.805,44.299,35,46.391,35   c2.362,0,3.554-1.762,3.854-2.693C50.249,32.293,50.684,31,52.195,31c0.858,0,1.797,1.138,2.062,1.541c0,0,0,0,0,0.001   C54.419,32.793,55.902,35,58,35c0.553,0,1-0.448,1-1s-0.447-1-1-1c-0.857,0-1.795-1.135-2.061-1.539c0-0.001,0-0.002-0.001-0.003   C55.775,31.207,54.292,29,52.195,29c-2.362,0-3.554,1.762-3.854,2.693C48.337,31.707,47.902,33,46.391,33   c-0.859,0-1.8-1.141-2.062-1.543c0,0-0.001,0-0.001-0.001C44.162,31.2,42.68,29,40.586,29c-2.362,0-3.554,1.762-3.854,2.693   C36.728,31.707,36.293,33,34.781,33c-0.859,0-1.802-1.144-2.063-1.545l0,0c-0.15-0.232-1.356-2.003-3.107-2.375   C29.49,29.029,29.357,29,29.219,29c-0.05,0-0.091,0.012-0.139,0.013C29.044,29.012,29.013,29,28.977,29   c-0.074,0-0.139,0.027-0.208,0.042c-2.056,0.211-3.124,1.783-3.404,2.651C25.36,31.707,24.926,33,23.414,33   c-0.859,0-1.802-1.144-2.063-1.545l0,0C21.182,31.195,19.701,29,17.609,29c-2.362,0-3.554,1.762-3.854,2.693   C13.751,31.707,13.316,33,11.805,33c-0.859,0-1.802-1.144-2.063-1.545l0,0C9.573,31.195,8.093,29,6,29c-0.553,0-1,0.448-1,1   s0.447,1,1,1c0.859,0,1.798,1.139,2.062,1.542c0,0,0,0,0,0.001C8.225,32.794,9.709,35,11.805,35   C14.167,35,15.358,33.238,15.659,32.307z" fill="#111111"></path><circle cx="35" cy="14" r="1" fill="#111111"></circle><circle cx="43" cy="23.25" r="1" fill="#111111"></circle><circle cx="40" cy="18.25" r="1" fill="#111111"></circle><circle cx="35" cy="23.25" r="1" fill="#111111"></circle><circle cx="47" cy="20.25" r="1" fill="#111111"></circle><circle cx="26" cy="23.25" r="1" fill="#111111"></circle><circle cx="23" cy="16.25" r="1" fill="#111111"></circle><circle cx="18" cy="21.25" r="1" fill="#111111"></circle><circle cx="30" cy="18.25" r="1" fill="#111111"></circle><path d="M29.219,29H32c0.553,0,1-0.448,1-1s-0.447-1-1-1H10.046C10.768,18.367,20.714,11,32,11s21.232,7.367,21.954,16H50   c-0.553,0-1,0.448-1,1s0.447,1,1,1h2.195H55c0.553,0,1-0.448,1-1C56,17.701,45.01,9,32,9S8,17.701,8,28c0,0.552,0.447,1,1,1h8.609   h11.367H29.219z" fill="#111111"></path><path d="M47,28c0-0.552-0.447-1-1-1H36c-0.553,0-1,0.448-1,1s0.447,1,1,1h4.586H46C46.553,29,47,28.552,47,28z" fill="#111111"></path><path d="M52.393,35h-1.538h-4.464H34.781H23.414h-10.56h-1.05h-0.197C7.964,35,5,37.691,5,41c0,2.1,1.196,3.948,3,5.021v6.805   C8,55.127,9.78,57,11.968,57h40.064C54.22,57,56,55.127,56,52.826v-6.805c1.804-1.072,3-2.92,3-5.021   C59,37.691,56.036,35,52.393,35z M48.222,37L32.854,50.641c-0.521,0.464-1.479,0.464-2.001,0l-7.682-6.818   c-0.187-0.166-0.424-0.252-0.664-0.252c-0.139,0-0.278,0.029-0.41,0.088c-0.358,0.162-0.59,0.519-0.59,0.912v4.001   c0,0.709-0.499,1.286-1.111,1.286s-1.111-0.577-1.111-1.286v-7.75c0-0.286-0.122-0.558-0.336-0.748L15.487,37H48.222z M11.607,37   h0.867l4.811,4.271V45h-5.678C9.066,45,7,43.206,7,41S9.066,37,11.607,37z M54,47v5.826C54,54.024,53.117,55,52.032,55H11.968   C10.883,55,10,54.024,10,52.826V47h1.607h5.678v1.571c0,1.812,1.396,3.286,3.111,3.286s3.111-1.474,3.111-3.286v-1.776l6.019,5.342   C30.154,52.694,30.981,53,31.854,53s1.7-0.307,2.328-0.863L39.97,47h12.423H54z M52.393,45h-10.17l9.012-8h1.158   C54.934,37,57,38.794,57,41S54.934,45,52.393,45z" fill="#111111"></path></g></g><g id="SvgjsG1323" featurekey="nameFeature-0" transform="matrix(1.3460817008905652,0,0,1.3460817008905652,69.48337327681938,177.3085899898935)" fill="#111111"><path d="M11.24 23.12 l5.8 10.04 l0.4 -19.68 c0.12 -0.76 1.12 -0.8 1.72 -0.8 c0.4 0 0.8 0.08 1.2 0.2 c0.36 0.12 0.52 0.32 0.48 0.6 l-0.24 12.72 c-0.12 4.2 -0.16 8.44 -0.28 12.76 c0 0.64 -1.04 0.8 -1.52 0.8 c-1 0 -1.6 -0.2 -1.8 -0.6 l-5.8 -10.08 l-5.84 -10.04 c-0.12 3.36 -0.12 6.6 -0.08 9.84 c0 3.24 0.04 6.48 0.16 9.8 c0.04 0.28 -0.12 0.52 -0.48 0.64 c-0.4 0.12 -0.8 0.2 -1.2 0.2 c-0.6 0 -1.6 -0.08 -1.72 -0.84 c-0.12 -4.28 -0.2 -8.48 -0.16 -12.68 c0 -4.2 0.08 -8.4 0.2 -12.72 c0.12 -0.76 0.96 -0.8 1.56 -0.8 c0.92 0 1.52 0.2 1.8 0.6 z M39.126999999999995 21.64 l0.12 4.04 c0.04 1.8 0.04 3.68 0 5.6 c-0.04 1.96 -0.08 3.76 -0.2 5.48 c-0.12 1.8 -0.32 3.08 -0.52 3.76 c-0.04 0.2 -0.2 0.36 -0.56 0.48 c-0.36 0.08 -0.72 0.12 -1.08 0.12 c-0.4 0 -0.8 -0.08 -1.2 -0.2 c-0.36 -0.12 -0.56 -0.32 -0.52 -0.6 c0.28 -2.72 0.44 -5.28 0.56 -8 c-0.4 -0.16 -0.96 -0.24 -1.64 -0.24 c-0.44 0 -0.8 0 -1 0.04 c-0.24 0.04 -0.56 0.04 -0.92 0.04 l-0.12 0 l-3.72 -0.12 c0 2.4 0.24 4.8 0.84 7.16 c0.04 0.28 -0.08 0.44 -0.44 0.56 c-0.4 0.12 -0.8 0.2 -1.24 0.2 c-0.48 0 -1.6 -0.16 -1.72 -0.76 c-0.76 -2.96 -1.08 -5.92 -0.92 -8.92 c0.2 -4.32 0.64 -11.28 3.24 -14.96 c1.4 -1.92 3.2 -2.88 5.48 -2.88 c5.24 0 5.44 5.24 5.56 9.2 z M34.367 29.92 c0.52 0 1 0.04 1.44 0.08 c0.04 -0.76 0.04 -1.4 0.04 -2.16 l0 -2.16 l-0.08 -3.56 c-0.12 -2.08 -0.24 -4.04 -0.6 -6.08 c-0.2 -1.08 -0.68 -1.72 -1.48 -1.92 c-0.04 -0.04 -0.16 -0.04 -0.36 -0.04 c-0.4 0 -0.8 0.2 -1.24 0.56 c-0.4 0.4 -0.76 0.88 -1.04 1.4 c-2.16 3.56 -2.48 9.56 -2.68 13.72 c2.04 0.12 3.96 0.16 6 0.16 z M63.093999999999994 13.36 c0.2 -0.4 0.48 -0.6 0.84 -0.6 c0.4 0 0.72 0.16 1 0.52 s0.32 0.76 0.12 1.2 c-0.84 1.88 -2.4 2.6 -4.44 2.6 c-1.32 0 -2.68 -0.24 -4.04 -0.68 c-0.2 -0.04 -0.36 -0.12 -0.52 -0.16 l-0.6 -0.12 c0.04 8.28 -0.2 16.16 -0.76 23.72 c-0.12 0.76 -1.08 0.8 -1.68 0.8 c-0.4 0 -0.8 -0.08 -1.2 -0.2 c-0.36 -0.12 -0.56 -0.32 -0.52 -0.6 c0.28 -4.16 0.52 -8.16 0.64 -12.28 c0.12 -4.04 0.16 -8.16 0.12 -12.28 l-1.12 -0.16 l-1.2 -0.16 c-0.56 -0.08 -1.16 -0.12 -1.76 -0.12 c-0.68 0 -1.44 0.12 -2.28 0.32 s-1.36 0.68 -1.56 1.48 c-0.2 0.52 -0.56 0.8 -1.08 0.8 c-0.36 0 -0.68 -0.12 -0.92 -0.4 c-0.28 -0.2 -0.32 -0.56 -0.2 -1 c0.44 -1.4 1.28 -2.32 2.48 -2.76 c1.24 -0.44 2.48 -0.68 3.8 -0.68 c2.88 0 5.56 0.68 8.28 1.44 l1.92 0.52 c0.72 0.2 1.4 0.32 2.08 0.32 c1.28 0 2.16 -0.52 2.6 -1.52 z M67.821 12.920000000000002 l5.48 0.12 c0.36 0 0.56 0.2 0.56 0.56 s-0.2 0.56 -0.56 0.56 l-0.84 0 l-0.36 12.36 l-0.4 12.36 l0.64 0 c0.36 0 0.56 0.16 0.56 0.52 s-0.2 0.56 -0.56 0.6 c-0.2 0.04 -0.48 0.04 -0.88 0.04 l-0.88 0 c-1 0 -2 -0.04 -2.96 -0.12 c-0.36 -0.04 -0.56 -0.28 -0.56 -0.64 c0 -0.32 0.2 -0.48 0.56 -0.48 s0.56 0 0.68 0.04 l0.4 -12.36 l0.36 -12.36 l-1.24 -0.08 c-0.36 0 -0.56 -0.2 -0.56 -0.6 c0 -0.36 0.2 -0.52 0.56 -0.52 z M91.748 16.12 c0.48 1.32 0.8 2.68 0.96 4.04 c0.44 3.84 0.32 7.64 -0.36 11.36 c-0.28 1.48 -0.6 2.92 -1.04 4.32 c-0.44 1.48 -1.4 2.56 -2.88 3.16 c-1.44 0.6 -2.88 0.92 -4.32 0.92 c-4.48 0 -6.64 -2.48 -7.24 -6.8 c-0.2 -1.64 -0.32 -3.32 -0.28 -5.04 c0 -5.92 1 -15.68 8.8 -15.68 c2.56 0 5.36 1.16 6.36 3.72 z M89.548 24.8 c0 -2.56 -0.12 -10.36 -4 -10.36 c-1.88 0 -3.8 1.6 -4.48 3.32 c-0.52 1.2 -0.8 2.44 -0.92 3.72 c-0.16 1.24 -0.2 2.56 -0.16 4.04 l0.08 3.64 c0 2.64 0.16 9.16 4 9.16 c0.44 0 0.84 -0.04 1.16 -0.16 c1.44 -0.36 2.36 -1.16 2.76 -2.48 c1.04 -3.64 1.56 -7.28 1.56 -10.88 z M106.27499999999999 23.12 l5.8 10.04 l0.4 -19.68 c0.12 -0.76 1.12 -0.8 1.72 -0.8 c0.4 0 0.8 0.08 1.2 0.2 c0.36 0.12 0.52 0.32 0.48 0.6 l-0.24 12.72 c-0.12 4.2 -0.16 8.44 -0.28 12.76 c0 0.64 -1.04 0.8 -1.52 0.8 c-1 0 -1.6 -0.2 -1.8 -0.6 l-5.8 -10.08 l-5.84 -10.04 c-0.12 3.36 -0.12 6.6 -0.08 9.84 c0 3.24 0.04 6.48 0.16 9.8 c0.04 0.28 -0.12 0.52 -0.48 0.64 c-0.4 0.12 -0.8 0.2 -1.2 0.2 c-0.6 0 -1.6 -0.08 -1.72 -0.84 c-0.12 -4.28 -0.2 -8.48 -0.16 -12.68 c0 -4.2 0.08 -8.4 0.2 -12.72 c0.12 -0.76 0.96 -0.8 1.56 -0.8 c0.92 0 1.52 0.2 1.8 0.6 z M134.16199999999998 21.64 l0.12 4.04 c0.04 1.8 0.04 3.68 0 5.6 c-0.04 1.96 -0.08 3.76 -0.2 5.48 c-0.12 1.8 -0.32 3.08 -0.52 3.76 c-0.04 0.2 -0.2 0.36 -0.56 0.48 c-0.36 0.08 -0.72 0.12 -1.08 0.12 c-0.4 0 -0.8 -0.08 -1.2 -0.2 c-0.36 -0.12 -0.56 -0.32 -0.52 -0.6 c0.28 -2.72 0.44 -5.28 0.56 -8 c-0.4 -0.16 -0.96 -0.24 -1.64 -0.24 c-0.44 0 -0.8 0 -1 0.04 c-0.24 0.04 -0.56 0.04 -0.92 0.04 l-0.12 0 l-3.72 -0.12 c0 2.4 0.24 4.8 0.84 7.16 c0.04 0.28 -0.08 0.44 -0.44 0.56 c-0.4 0.12 -0.8 0.2 -1.24 0.2 c-0.48 0 -1.6 -0.16 -1.72 -0.76 c-0.76 -2.96 -1.08 -5.92 -0.92 -8.92 c0.2 -4.32 0.64 -11.28 3.24 -14.96 c1.4 -1.92 3.2 -2.88 5.48 -2.88 c5.24 0 5.44 5.24 5.56 9.2 z M129.402 29.92 c0.52 0 1 0.04 1.44 0.08 c0.04 -0.76 0.04 -1.4 0.04 -2.16 l0 -2.16 l-0.08 -3.56 c-0.12 -2.08 -0.24 -4.04 -0.6 -6.08 c-0.2 -1.08 -0.68 -1.72 -1.48 -1.92 c-0.04 -0.04 -0.16 -0.04 -0.36 -0.04 c-0.4 0 -0.8 0.2 -1.24 0.56 c-0.4 0.4 -0.76 0.88 -1.04 1.4 c-2.16 3.56 -2.48 9.56 -2.68 13.72 c2.04 0.12 3.96 0.16 6 0.16 z M149.32899999999998 38.08 c0.76 0 1.12 0.36 1.12 1.12 s-0.36 1.16 -1.12 1.16 c-2.2 0.16 -4.36 0.2 -6.56 0.2 c-1.32 0 -2.36 -0.04 -3.12 -0.16 c-0.88 -0.12 -1.32 -0.32 -1.28 -0.6 c0.32 -4.48 0.48 -8.84 0.52 -13.28 c0 -4.4 -0.08 -8.84 -0.24 -13.32 c0 -0.68 1.2 -0.8 1.68 -0.8 s1.72 0.12 1.72 0.8 c0.12 4.2 0.2 8.28 0.16 12.44 c-0.04 4.12 -0.16 8.28 -0.36 12.48 l5.52 0 c0.64 0 1.28 0 1.96 -0.04 z" fill="#111111"></path></g><g id="SvgjsG1324" featurekey="nameFeature-1" transform="matrix(1.5092201848067015,0,0,1.5092201848067015,69.53132502374852,224.4667722156654)" fill="#111111"><path d="M15.68 21.04 c0.08 2.16 -0.52 4 -1.8 5.52 c-1.32 1.56 -2.92 2.68 -4.76 3.36 c2.4 0.4 4.24 1.56 5.52 3.48 c0.68 1 0.84 2.04 0.56 3.2 c-0.72 2.84 -4.56 3.72 -7.2 3.72 c-1.92 0 -3.72 -0.32 -5.6 -0.76 c-0.56 -0.12 -0.8 -0.48 -0.76 -1.16 l0.84 -25.04 c0 -0.76 1.2 -0.84 1.72 -0.84 c0.48 0 1.68 0.12 1.68 0.8 c3.72 0 7.04 0.92 8.92 4.4 c0.56 1.08 0.84 2.2 0.88 3.32 z M11.8 36.36 c0.16 -0.6 0.12 -1.24 -0.08 -1.88 c-0.2 -0.52 -0.52 -1.08 -1 -1.6 c-1.16 -1.08 -2.12 -1.52 -3.72 -1.52 c-0.04 0.04 -0.16 0.04 -0.28 0.04 c-0.04 0.04 -0.16 0.04 -0.36 0.04 c-0.28 0 -0.56 -0.04 -0.84 -0.12 c-0.12 2.36 -0.24 4.64 -0.4 7 c0.96 0.28 1.92 0.44 2.84 0.44 c1.76 0 3.36 -0.52 3.84 -2.4 z M5.64 29.08 c1.84 -0.36 3.4 -1.24 4.64 -2.56 c1.28 -1.36 1.96 -3 2 -4.92 c0.08 -1.84 -0.48 -3.44 -1.68 -4.8 c-1.4 -1.56 -2.72 -1.8 -4.68 -1.92 c0 4.76 0 9.44 -0.28 14.2 z M34.087 13.16 c0.12 -0.76 1.12 -0.8 1.72 -0.8 c0.48 0 1.72 0.12 1.72 0.8 c-0.28 4.36 -0.56 8.72 -0.88 13.04 c-0.32 4.24 -0.24 8.56 0.2 13 c0.04 0.28 -0.12 0.48 -0.48 0.6 c-0.4 0.12 -0.8 0.2 -1.2 0.2 c-0.6 0 -1.6 -0.12 -1.72 -0.8 c-0.12 -0.92 -0.16 -1.8 -0.2 -2.72 l-0.12 -2.76 c-0.92 1.4 -2.16 2.84 -3.64 4.24 c-1.52 1.44 -3.2 2.16 -5.04 2.16 c-1.68 0 -2.92 -0.72 -3.68 -2.16 c-0.8 -1.4 -1.24 -2.92 -1.32 -4.56 c-0.2 -3.24 -0.08 -6.6 0.32 -10.04 c0.44 -3.36 0.76 -6.64 1.04 -10 c0.12 -0.76 1.12 -0.8 1.72 -0.8 c0.4 0 0.8 0.08 1.2 0.2 c0.36 0.12 0.52 0.32 0.48 0.6 c-0.28 2.88 -0.48 5.6 -0.76 8.44 s-0.48 5.68 -0.6 8.52 c-0.04 0.8 -0.08 1.6 -0.04 2.4 c0 1.44 0.16 5.08 2.08 5.08 c1.24 0 2.64 -1.28 3.44 -2.08 c1.92 -1.84 3.52 -4.04 4.8 -6.6 c0.12 -2.72 0.24 -5.28 0.44 -8 c0.2 -2.68 0.4 -5.24 0.52 -7.96 z M56.093999999999994 20.92 c0.2 2.68 -0.52 4.84 -2.24 6.56 s-3.76 2.92 -6.12 3.52 c2.04 2.68 4.44 5.08 7.12 7.12 c0.52 0.36 0.64 0.84 0.44 1.36 c-0.2 0.56 -0.52 0.84 -0.96 0.84 c-0.2 0 -0.4 -0.08 -0.6 -0.24 c-3.2 -2.4 -5.96 -5.2 -8.32 -8.44 c-0.04 1.32 -0.08 2.6 -0.2 3.88 c-0.12 1.32 -0.12 2.6 -0.24 3.92 c-0.04 0.28 -0.2 0.48 -0.56 0.64 c-0.32 0.12 -0.72 0.16 -1.16 0.16 c-0.36 0 -0.76 -0.08 -1.16 -0.2 c-0.36 -0.12 -0.56 -0.32 -0.52 -0.6 c0.28 -4.44 0.52 -8.8 0.64 -13.16 s0.2 -8.72 0.16 -13.2 c0 -0.68 1.2 -0.8 1.68 -0.8 s1.72 0.12 1.72 0.8 l0 0.04 c2.44 0 4.88 0.28 6.92 1.76 s3.2 3.52 3.4 6.04 z M46.134 29.64 c1.88 -0.44 3.44 -1.44 4.68 -2.92 s1.88 -3.24 1.88 -5.2 c0 -1.32 -0.4 -2.64 -1.16 -3.96 s-1.8 -2.2 -3.2 -2.56 c-0.84 -0.2 -1.72 -0.32 -2.56 -0.32 c0 5.08 0 10 -0.28 15.08 c0.24 -0.08 0.44 -0.12 0.64 -0.12 z M74.381 16.96 c0.32 1.44 0.44 2.84 0.4 4.16 c0 0.68 -1.2 0.8 -1.68 0.8 s-1.72 -0.12 -1.72 -0.8 c0.04 -1.08 0 -2.08 -0.16 -3.08 c-0.2 -1.04 -0.56 -1.96 -1.08 -2.8 l-0.48 -0.68 c-0.12 -0.12 -0.36 -0.2 -0.64 -0.2 l-0.28 0 c-0.64 0.12 -1.24 0.6 -1.8 1.36 c-0.52 0.76 -0.96 1.44 -1.24 2 c-1.84 3.48 -2.88 7.2 -3.16 11.16 c-0.08 0.76 -0.08 1.68 -0.04 2.84 c0.04 1.36 0.36 2.8 0.88 4.36 c0.56 1.56 1.52 2.64 2.88 3.28 c0.36 0.2 0.76 0.28 1.12 0.28 c0.84 0 1.44 -0.52 1.8 -1.56 c0.28 -0.88 0.52 -1.72 0.64 -2.48 c0.28 -1.68 0.36 -3.36 0.24 -5.04 c-1.08 0.12 -2 0.4 -2.84 0.84 c-0.12 0.12 -0.28 0.16 -0.52 0.16 c-0.52 0 -0.92 -0.28 -1.12 -0.84 c-0.2 -0.6 -0.04 -1 0.52 -1.28 c1.92 -0.92 3.56 -1.2 5.64 -1.2 c0.12 0.04 0.32 0.04 0.6 0.04 c0.36 0.04 0.64 0.2 0.84 0.48 s0.28 0.6 0.24 0.88 c0.12 1.16 0.16 2.4 0.12 3.8 c-0.12 3.76 -1.6 8 -5.96 8 c-2.52 0 -4.44 -0.84 -5.8 -2.56 c-1.32 -1.72 -2.16 -3.72 -2.48 -5.96 c-0.2 -1.48 -0.28 -2.84 -0.16 -4.04 c0.32 -4.6 2.4 -13.24 6.88 -15.68 c0.92 -0.52 1.96 -0.76 3.08 -0.76 c2.84 0 4.64 1.84 5.28 4.52 z M93.268 13.16 c0.12 -0.76 1.12 -0.8 1.72 -0.8 c0.48 0 1.72 0.12 1.72 0.8 c-0.28 4.36 -0.56 8.72 -0.88 13.04 c-0.32 4.24 -0.24 8.56 0.2 13 c0.04 0.28 -0.12 0.48 -0.48 0.6 c-0.4 0.12 -0.8 0.2 -1.2 0.2 c-0.6 0 -1.6 -0.12 -1.72 -0.8 c-0.12 -0.92 -0.16 -1.8 -0.2 -2.72 l-0.12 -2.76 c-0.92 1.4 -2.16 2.84 -3.64 4.24 c-1.52 1.44 -3.2 2.16 -5.04 2.16 c-1.68 0 -2.92 -0.72 -3.68 -2.16 c-0.8 -1.4 -1.24 -2.92 -1.32 -4.56 c-0.2 -3.24 -0.08 -6.6 0.32 -10.04 c0.44 -3.36 0.76 -6.64 1.04 -10 c0.12 -0.76 1.12 -0.8 1.72 -0.8 c0.4 0 0.8 0.08 1.2 0.2 c0.36 0.12 0.52 0.32 0.48 0.6 c-0.28 2.88 -0.48 5.6 -0.76 8.44 s-0.48 5.68 -0.6 8.52 c-0.04 0.8 -0.08 1.6 -0.04 2.4 c0 1.44 0.16 5.08 2.08 5.08 c1.24 0 2.64 -1.28 3.44 -2.08 c1.92 -1.84 3.52 -4.04 4.8 -6.6 c0.12 -2.72 0.24 -5.28 0.44 -8 c0.2 -2.68 0.4 -5.24 0.52 -7.96 z M115.55499999999999 15.760000000000002 c0.6 1.72 0.88 3.44 0.76 5.08 c0 0.76 -1.16 0.84 -1.68 0.84 c-0.44 0 -0.84 -0.08 -1.2 -0.24 c-0.36 -0.12 -0.56 -0.32 -0.52 -0.6 c0.04 -0.44 0 -1.04 -0.04 -1.8 c-0.16 -1.4 -0.44 -2.72 -1.2 -3.96 c-0.36 -0.52 -0.76 -0.76 -1.24 -0.76 c-2.88 0 -5.52 8.28 -6.16 11.2 c-0.2 0.84 -0.32 1.72 -0.44 2.56 l5.56 0 c0.36 0 0.64 0.12 0.84 0.36 c0.16 0.24 0.24 0.48 0.24 0.76 s-0.08 0.56 -0.24 0.8 c-0.2 0.24 -0.48 0.36 -0.84 0.36 l-5.64 0 c0.04 0.92 0.16 1.84 0.36 2.76 c0.52 1.88 1.48 3.36 2.88 4.4 c0.76 0.52 1.36 0.8 1.8 0.8 c0.76 0 1.36 -0.44 1.76 -1.36 c0.36 -0.92 0.64 -1.64 0.76 -2.24 c0.12 -0.76 1.12 -0.8 1.72 -0.8 c0.44 0 0.84 0.08 1.24 0.2 c0.36 0.16 0.48 0.36 0.44 0.6 c-0.76 3.08 -2.28 5.36 -5.68 5.36 c-1.76 0 -3.4 -0.56 -4.96 -1.72 s-2.6 -2.6 -3.12 -4.28 c-0.56 -1.76 -0.76 -3.64 -0.6 -5.6 c0.32 -4.48 2.52 -11.32 6.08 -14.44 c1.08 -0.96 2.44 -1.44 4 -1.44 c2.24 0 4.28 0.92 5.12 3.16 z M134.12199999999999 20.92 c0.2 2.68 -0.52 4.84 -2.24 6.56 s-3.76 2.92 -6.12 3.52 c2.04 2.68 4.44 5.08 7.12 7.12 c0.52 0.36 0.64 0.84 0.44 1.36 c-0.2 0.56 -0.52 0.84 -0.96 0.84 c-0.2 0 -0.4 -0.08 -0.6 -0.24 c-3.2 -2.4 -5.96 -5.2 -8.32 -8.44 c-0.04 1.32 -0.08 2.6 -0.2 3.88 c-0.12 1.32 -0.12 2.6 -0.24 3.92 c-0.04 0.28 -0.2 0.48 -0.56 0.64 c-0.32 0.12 -0.72 0.16 -1.16 0.16 c-0.36 0 -0.76 -0.08 -1.16 -0.2 c-0.36 -0.12 -0.56 -0.32 -0.52 -0.6 c0.28 -4.44 0.52 -8.8 0.64 -13.16 s0.2 -8.72 0.16 -13.2 c0 -0.68 1.2 -0.8 1.68 -0.8 s1.72 0.12 1.72 0.8 l0 0.04 c2.44 0 4.88 0.28 6.92 1.76 s3.2 3.52 3.4 6.04 z M124.16199999999999 29.64 c1.88 -0.44 3.44 -1.44 4.68 -2.92 s1.88 -3.24 1.88 -5.2 c0 -1.32 -0.4 -2.64 -1.16 -3.96 s-1.8 -2.2 -3.2 -2.56 c-0.84 -0.2 -1.72 -0.32 -2.56 -0.32 c0 5.08 0 10 -0.28 15.08 c0.24 -0.08 0.44 -0.12 0.64 -0.12 z" fill="#111111"></path></g></svg>