<svg xmlns:xlink="http://www.w3.org/1999/xlink" xmlns="http://www.w3.org/2000/svg" viewBox="0 0 421.3083491778782 58.34583021939522" preserveAspectRatio="xMidYMid meet" class="css-ata32y" id="adegecec" width="421.3083491778782"  height="58.34583021939522" ><defs id="SvgjsDefs1754"></defs><g id="SvgjsG1755" featurekey="nameLeftFeature-0" transform="matrix(1.128633312818942,0,0,1.128633312818942,-2.1100864485661313,-0.9950504957182336)" fill="#111111"><path d="M11.24 23.12 l5.8 10.04 l0.4 -19.68 c0.12 -0.76 1.12 -0.8 1.72 -0.8 c0.4 0 0.8 0.08 1.2 0.2 c0.36 0.12 0.52 0.32 0.48 0.6 l-0.24 12.72 c-0.12 4.2 -0.16 8.44 -0.28 12.76 c0 0.64 -1.04 0.8 -1.52 0.8 c-1 0 -1.6 -0.2 -1.8 -0.6 l-5.8 -10.08 l-5.84 -10.04 c-0.12 3.36 -0.12 6.6 -0.08 9.84 c0 3.24 0.04 6.48 0.16 9.8 c0.04 0.28 -0.12 0.52 -0.48 0.64 c-0.4 0.12 -0.8 0.2 -1.2 0.2 c-0.6 0 -1.6 -0.08 -1.72 -0.84 c-0.12 -4.28 -0.2 -8.48 -0.16 -12.68 c0 -4.2 0.08 -8.4 0.2 -12.72 c0.12 -0.76 0.96 -0.8 1.56 -0.8 c0.92 0 1.52 0.2 1.8 0.6 z M39.126999999999995 21.64 l0.12 4.04 c0.04 1.8 0.04 3.68 0 5.6 c-0.04 1.96 -0.08 3.76 -0.2 5.48 c-0.12 1.8 -0.32 3.08 -0.52 3.76 c-0.04 0.2 -0.2 0.36 -0.56 0.48 c-0.36 0.08 -0.72 0.12 -1.08 0.12 c-0.4 0 -0.8 -0.08 -1.2 -0.2 c-0.36 -0.12 -0.56 -0.32 -0.52 -0.6 c0.28 -2.72 0.44 -5.28 0.56 -8 c-0.4 -0.16 -0.96 -0.24 -1.64 -0.24 c-0.44 0 -0.8 0 -1 0.04 c-0.24 0.04 -0.56 0.04 -0.92 0.04 l-0.12 0 l-3.72 -0.12 c0 2.4 0.24 4.8 0.84 7.16 c0.04 0.28 -0.08 0.44 -0.44 0.56 c-0.4 0.12 -0.8 0.2 -1.24 0.2 c-0.48 0 -1.6 -0.16 -1.72 -0.76 c-0.76 -2.96 -1.08 -5.92 -0.92 -8.92 c0.2 -4.32 0.64 -11.28 3.24 -14.96 c1.4 -1.92 3.2 -2.88 5.48 -2.88 c5.24 0 5.44 5.24 5.56 9.2 z M34.367 29.92 c0.52 0 1 0.04 1.44 0.08 c0.04 -0.76 0.04 -1.4 0.04 -2.16 l0 -2.16 l-0.08 -3.56 c-0.12 -2.08 -0.24 -4.04 -0.6 -6.08 c-0.2 -1.08 -0.68 -1.72 -1.48 -1.92 c-0.04 -0.04 -0.16 -0.04 -0.36 -0.04 c-0.4 0 -0.8 0.2 -1.24 0.56 c-0.4 0.4 -0.76 0.88 -1.04 1.4 c-2.16 3.56 -2.48 9.56 -2.68 13.72 c2.04 0.12 3.96 0.16 6 0.16 z M63.093999999999994 13.36 c0.2 -0.4 0.48 -0.6 0.84 -0.6 c0.4 0 0.72 0.16 1 0.52 s0.32 0.76 0.12 1.2 c-0.84 1.88 -2.4 2.6 -4.44 2.6 c-1.32 0 -2.68 -0.24 -4.04 -0.68 c-0.2 -0.04 -0.36 -0.12 -0.52 -0.16 l-0.6 -0.12 c0.04 8.28 -0.2 16.16 -0.76 23.72 c-0.12 0.76 -1.08 0.8 -1.68 0.8 c-0.4 0 -0.8 -0.08 -1.2 -0.2 c-0.36 -0.12 -0.56 -0.32 -0.52 -0.6 c0.28 -4.16 0.52 -8.16 0.64 -12.28 c0.12 -4.04 0.16 -8.16 0.12 -12.28 l-1.12 -0.16 l-1.2 -0.16 c-0.56 -0.08 -1.16 -0.12 -1.76 -0.12 c-0.68 0 -1.44 0.12 -2.28 0.32 s-1.36 0.68 -1.56 1.48 c-0.2 0.52 -0.56 0.8 -1.08 0.8 c-0.36 0 -0.68 -0.12 -0.92 -0.4 c-0.28 -0.2 -0.32 -0.56 -0.2 -1 c0.44 -1.4 1.28 -2.32 2.48 -2.76 c1.24 -0.44 2.48 -0.68 3.8 -0.68 c2.88 0 5.56 0.68 8.28 1.44 l1.92 0.52 c0.72 0.2 1.4 0.32 2.08 0.32 c1.28 0 2.16 -0.52 2.6 -1.52 z M67.821 12.920000000000002 l5.48 0.12 c0.36 0 0.56 0.2 0.56 0.56 s-0.2 0.56 -0.56 0.56 l-0.84 0 l-0.36 12.36 l-0.4 12.36 l0.64 0 c0.36 0 0.56 0.16 0.56 0.52 s-0.2 0.56 -0.56 0.6 c-0.2 0.04 -0.48 0.04 -0.88 0.04 l-0.88 0 c-1 0 -2 -0.04 -2.96 -0.12 c-0.36 -0.04 -0.56 -0.28 -0.56 -0.64 c0 -0.32 0.2 -0.48 0.56 -0.48 s0.56 0 0.68 0.04 l0.4 -12.36 l0.36 -12.36 l-1.24 -0.08 c-0.36 0 -0.56 -0.2 -0.56 -0.6 c0 -0.36 0.2 -0.52 0.56 -0.52 z M91.748 16.12 c0.48 1.32 0.8 2.68 0.96 4.04 c0.44 3.84 0.32 7.64 -0.36 11.36 c-0.28 1.48 -0.6 2.92 -1.04 4.32 c-0.44 1.48 -1.4 2.56 -2.88 3.16 c-1.44 0.6 -2.88 0.92 -4.32 0.92 c-4.48 0 -6.64 -2.48 -7.24 -6.8 c-0.2 -1.64 -0.32 -3.32 -0.28 -5.04 c0 -5.92 1 -15.68 8.8 -15.68 c2.56 0 5.36 1.16 6.36 3.72 z M89.548 24.8 c0 -2.56 -0.12 -10.36 -4 -10.36 c-1.88 0 -3.8 1.6 -4.48 3.32 c-0.52 1.2 -0.8 2.44 -0.92 3.72 c-0.16 1.24 -0.2 2.56 -0.16 4.04 l0.08 3.64 c0 2.64 0.16 9.16 4 9.16 c0.44 0 0.84 -0.04 1.16 -0.16 c1.44 -0.36 2.36 -1.16 2.76 -2.48 c1.04 -3.64 1.56 -7.28 1.56 -10.88 z M106.27499999999999 23.12 l5.8 10.04 l0.4 -19.68 c0.12 -0.76 1.12 -0.8 1.72 -0.8 c0.4 0 0.8 0.08 1.2 0.2 c0.36 0.12 0.52 0.32 0.48 0.6 l-0.24 12.72 c-0.12 4.2 -0.16 8.44 -0.28 12.76 c0 0.64 -1.04 0.8 -1.52 0.8 c-1 0 -1.6 -0.2 -1.8 -0.6 l-5.8 -10.08 l-5.84 -10.04 c-0.12 3.36 -0.12 6.6 -0.08 9.84 c0 3.24 0.04 6.48 0.16 9.8 c0.04 0.28 -0.12 0.52 -0.48 0.64 c-0.4 0.12 -0.8 0.2 -1.2 0.2 c-0.6 0 -1.6 -0.08 -1.72 -0.84 c-0.12 -4.28 -0.2 -8.48 -0.16 -12.68 c0 -4.2 0.08 -8.4 0.2 -12.72 c0.12 -0.76 0.96 -0.8 1.56 -0.8 c0.92 0 1.52 0.2 1.8 0.6 z M134.16199999999998 21.64 l0.12 4.04 c0.04 1.8 0.04 3.68 0 5.6 c-0.04 1.96 -0.08 3.76 -0.2 5.48 c-0.12 1.8 -0.32 3.08 -0.52 3.76 c-0.04 0.2 -0.2 0.36 -0.56 0.48 c-0.36 0.08 -0.72 0.12 -1.08 0.12 c-0.4 0 -0.8 -0.08 -1.2 -0.2 c-0.36 -0.12 -0.56 -0.32 -0.52 -0.6 c0.28 -2.72 0.44 -5.28 0.56 -8 c-0.4 -0.16 -0.96 -0.24 -1.64 -0.24 c-0.44 0 -0.8 0 -1 0.04 c-0.24 0.04 -0.56 0.04 -0.92 0.04 l-0.12 0 l-3.72 -0.12 c0 2.4 0.24 4.8 0.84 7.16 c0.04 0.28 -0.08 0.44 -0.44 0.56 c-0.4 0.12 -0.8 0.2 -1.24 0.2 c-0.48 0 -1.6 -0.16 -1.72 -0.76 c-0.76 -2.96 -1.08 -5.92 -0.92 -8.92 c0.2 -4.32 0.64 -11.28 3.24 -14.96 c1.4 -1.92 3.2 -2.88 5.48 -2.88 c5.24 0 5.44 5.24 5.56 9.2 z M129.402 29.92 c0.52 0 1 0.04 1.44 0.08 c0.04 -0.76 0.04 -1.4 0.04 -2.16 l0 -2.16 l-0.08 -3.56 c-0.12 -2.08 -0.24 -4.04 -0.6 -6.08 c-0.2 -1.08 -0.68 -1.72 -1.48 -1.92 c-0.04 -0.04 -0.16 -0.04 -0.36 -0.04 c-0.4 0 -0.8 0.2 -1.24 0.56 c-0.4 0.4 -0.76 0.88 -1.04 1.4 c-2.16 3.56 -2.48 9.56 -2.68 13.72 c2.04 0.12 3.96 0.16 6 0.16 z M149.32899999999998 38.08 c0.76 0 1.12 0.36 1.12 1.12 s-0.36 1.16 -1.12 1.16 c-2.2 0.16 -4.36 0.2 -6.56 0.2 c-1.32 0 -2.36 -0.04 -3.12 -0.16 c-0.88 -0.12 -1.32 -0.32 -1.28 -0.6 c0.32 -4.48 0.48 -8.84 0.52 -13.28 c0 -4.4 -0.08 -8.84 -0.24 -13.32 c0 -0.68 1.2 -0.8 1.68 -0.8 s1.72 0.12 1.72 0.8 c0.12 4.2 0.2 8.28 0.16 12.44 c-0.04 4.12 -0.16 8.28 -0.36 12.48 l5.52 0 c0.64 0 1.28 0 1.96 -0.04 z" fill="#111111"></path></g><g id="SvgjsG1756" featurekey="inlineSymbolFeature-0" transform="matrix(1.2155381295707337,0,0,1.2155381295707337,181.92230935214633,-10.939843166136603)" fill="#111111"><g xmlns="http://www.w3.org/2000/svg" fill="#111111"><path d="M15.659,32.307C15.663,32.293,16.098,31,17.609,31c0.859,0,1.8,1.141,2.062,1.543c0,0,0.001,0,0.001,0.001   C19.838,32.8,21.32,35,23.414,35c2.362,0,3.554-1.762,3.854-2.693c0.004-0.013,0.419-1.208,1.808-1.292   c0.831,0.082,1.709,1.14,1.963,1.526c0,0,0,0,0,0.001C31.201,32.794,32.686,35,34.781,35c2.362,0,3.554-1.762,3.854-2.693   C38.64,32.293,39.074,31,40.586,31c0.859,0,1.802,1.144,2.063,1.545l0,0C42.818,32.805,44.299,35,46.391,35   c2.362,0,3.554-1.762,3.854-2.693C50.249,32.293,50.684,31,52.195,31c0.858,0,1.797,1.138,2.062,1.541c0,0,0,0,0,0.001   C54.419,32.793,55.902,35,58,35c0.553,0,1-0.448,1-1s-0.447-1-1-1c-0.857,0-1.795-1.135-2.061-1.539c0-0.001,0-0.002-0.001-0.003   C55.775,31.207,54.292,29,52.195,29c-2.362,0-3.554,1.762-3.854,2.693C48.337,31.707,47.902,33,46.391,33   c-0.859,0-1.8-1.141-2.062-1.543c0,0-0.001,0-0.001-0.001C44.162,31.2,42.68,29,40.586,29c-2.362,0-3.554,1.762-3.854,2.693   C36.728,31.707,36.293,33,34.781,33c-0.859,0-1.802-1.144-2.063-1.545l0,0c-0.15-0.232-1.356-2.003-3.107-2.375   C29.49,29.029,29.357,29,29.219,29c-0.05,0-0.091,0.012-0.139,0.013C29.044,29.012,29.013,29,28.977,29   c-0.074,0-0.139,0.027-0.208,0.042c-2.056,0.211-3.124,1.783-3.404,2.651C25.36,31.707,24.926,33,23.414,33   c-0.859,0-1.802-1.144-2.063-1.545l0,0C21.182,31.195,19.701,29,17.609,29c-2.362,0-3.554,1.762-3.854,2.693   C13.751,31.707,13.316,33,11.805,33c-0.859,0-1.802-1.144-2.063-1.545l0,0C9.573,31.195,8.093,29,6,29c-0.553,0-1,0.448-1,1   s0.447,1,1,1c0.859,0,1.798,1.139,2.062,1.542c0,0,0,0,0,0.001C8.225,32.794,9.709,35,11.805,35   C14.167,35,15.358,33.238,15.659,32.307z" fill="#111111"></path><circle cx="35" cy="14" r="1" fill="#111111"></circle><circle cx="43" cy="23.25" r="1" fill="#111111"></circle><circle cx="40" cy="18.25" r="1" fill="#111111"></circle><circle cx="35" cy="23.25" r="1" fill="#111111"></circle><circle cx="47" cy="20.25" r="1" fill="#111111"></circle><circle cx="26" cy="23.25" r="1" fill="#111111"></circle><circle cx="23" cy="16.25" r="1" fill="#111111"></circle><circle cx="18" cy="21.25" r="1" fill="#111111"></circle><circle cx="30" cy="18.25" r="1" fill="#111111"></circle><path d="M29.219,29H32c0.553,0,1-0.448,1-1s-0.447-1-1-1H10.046C10.768,18.367,20.714,11,32,11s21.232,7.367,21.954,16H50   c-0.553,0-1,0.448-1,1s0.447,1,1,1h2.195H55c0.553,0,1-0.448,1-1C56,17.701,45.01,9,32,9S8,17.701,8,28c0,0.552,0.447,1,1,1h8.609   h11.367H29.219z" fill="#111111"></path><path d="M47,28c0-0.552-0.447-1-1-1H36c-0.553,0-1,0.448-1,1s0.447,1,1,1h4.586H46C46.553,29,47,28.552,47,28z" fill="#111111"></path><path d="M52.393,35h-1.538h-4.464H34.781H23.414h-10.56h-1.05h-0.197C7.964,35,5,37.691,5,41c0,2.1,1.196,3.948,3,5.021v6.805   C8,55.127,9.78,57,11.968,57h40.064C54.22,57,56,55.127,56,52.826v-6.805c1.804-1.072,3-2.92,3-5.021   C59,37.691,56.036,35,52.393,35z M48.222,37L32.854,50.641c-0.521,0.464-1.479,0.464-2.001,0l-7.682-6.818   c-0.187-0.166-0.424-0.252-0.664-0.252c-0.139,0-0.278,0.029-0.41,0.088c-0.358,0.162-0.59,0.519-0.59,0.912v4.001   c0,0.709-0.499,1.286-1.111,1.286s-1.111-0.577-1.111-1.286v-7.75c0-0.286-0.122-0.558-0.336-0.748L15.487,37H48.222z M11.607,37   h0.867l4.811,4.271V45h-5.678C9.066,45,7,43.206,7,41S9.066,37,11.607,37z M54,47v5.826C54,54.024,53.117,55,52.032,55H11.968   C10.883,55,10,54.024,10,52.826V47h1.607h5.678v1.571c0,1.812,1.396,3.286,3.111,3.286s3.111-1.474,3.111-3.286v-1.776l6.019,5.342   C30.154,52.694,30.981,53,31.854,53s1.7-0.307,2.328-0.863L39.97,47h12.423H54z M52.393,45h-10.17l9.012-8h1.158   C54.934,37,57,38.794,57,41S54.934,45,52.393,45z" fill="#111111"></path></g></g><g id="SvgjsG1757" featurekey="nameRightFeature-0" transform="matrix(1.1116036698490372,0,0,1.1116036698490372,256.65594829758805,-0.6504959492395841)" fill="#111111"><path d="M29.647 21.04 c0.08 2.16 -0.52 4 -1.8 5.52 c-1.32 1.56 -2.92 2.68 -4.76 3.36 c2.4 0.4 4.24 1.56 5.52 3.48 c0.68 1 0.84 2.04 0.56 3.2 c-0.72 2.84 -4.56 3.72 -7.2 3.72 c-1.92 0 -3.72 -0.32 -5.6 -0.76 c-0.56 -0.12 -0.8 -0.48 -0.76 -1.16 l0.84 -25.04 c0 -0.76 1.2 -0.84 1.72 -0.84 c0.48 0 1.68 0.12 1.68 0.8 c3.72 0 7.04 0.92 8.92 4.4 c0.56 1.08 0.84 2.2 0.88 3.32 z M25.767000000000003 36.36 c0.16 -0.6 0.12 -1.24 -0.08 -1.88 c-0.2 -0.52 -0.52 -1.08 -1 -1.6 c-1.16 -1.08 -2.12 -1.52 -3.72 -1.52 c-0.04 0.04 -0.16 0.04 -0.28 0.04 c-0.04 0.04 -0.16 0.04 -0.36 0.04 c-0.28 0 -0.56 -0.04 -0.84 -0.12 c-0.12 2.36 -0.24 4.64 -0.4 7 c0.96 0.28 1.92 0.44 2.84 0.44 c1.76 0 3.36 -0.52 3.84 -2.4 z M19.607 29.08 c1.84 -0.36 3.4 -1.24 4.64 -2.56 c1.28 -1.36 1.96 -3 2 -4.92 c0.08 -1.84 -0.48 -3.44 -1.68 -4.8 c-1.4 -1.56 -2.72 -1.8 -4.68 -1.92 c0 4.76 0 9.44 -0.28 14.2 z M48.054 13.16 c0.12 -0.76 1.12 -0.8 1.72 -0.8 c0.48 0 1.72 0.12 1.72 0.8 c-0.28 4.36 -0.56 8.72 -0.88 13.04 c-0.32 4.24 -0.24 8.56 0.2 13 c0.04 0.28 -0.12 0.48 -0.48 0.6 c-0.4 0.12 -0.8 0.2 -1.2 0.2 c-0.6 0 -1.6 -0.12 -1.72 -0.8 c-0.12 -0.92 -0.16 -1.8 -0.2 -2.72 l-0.12 -2.76 c-0.92 1.4 -2.16 2.84 -3.64 4.24 c-1.52 1.44 -3.2 2.16 -5.04 2.16 c-1.68 0 -2.92 -0.72 -3.68 -2.16 c-0.8 -1.4 -1.24 -2.92 -1.32 -4.56 c-0.2 -3.24 -0.08 -6.6 0.32 -10.04 c0.44 -3.36 0.76 -6.64 1.04 -10 c0.12 -0.76 1.12 -0.8 1.72 -0.8 c0.4 0 0.8 0.08 1.2 0.2 c0.36 0.12 0.52 0.32 0.48 0.6 c-0.28 2.88 -0.48 5.6 -0.76 8.44 s-0.48 5.68 -0.6 8.52 c-0.04 0.8 -0.08 1.6 -0.04 2.4 c0 1.44 0.16 5.08 2.08 5.08 c1.24 0 2.64 -1.28 3.44 -2.08 c1.92 -1.84 3.52 -4.04 4.8 -6.6 c0.12 -2.72 0.24 -5.28 0.44 -8 c0.2 -2.68 0.4 -5.24 0.52 -7.96 z M70.06099999999999 20.92 c0.2 2.68 -0.52 4.84 -2.24 6.56 s-3.76 2.92 -6.12 3.52 c2.04 2.68 4.44 5.08 7.12 7.12 c0.52 0.36 0.64 0.84 0.44 1.36 c-0.2 0.56 -0.52 0.84 -0.96 0.84 c-0.2 0 -0.4 -0.08 -0.6 -0.24 c-3.2 -2.4 -5.96 -5.2 -8.32 -8.44 c-0.04 1.32 -0.08 2.6 -0.2 3.88 c-0.12 1.32 -0.12 2.6 -0.24 3.92 c-0.04 0.28 -0.2 0.48 -0.56 0.64 c-0.32 0.12 -0.72 0.16 -1.16 0.16 c-0.36 0 -0.76 -0.08 -1.16 -0.2 c-0.36 -0.12 -0.56 -0.32 -0.52 -0.6 c0.28 -4.44 0.52 -8.8 0.64 -13.16 s0.2 -8.72 0.16 -13.2 c0 -0.68 1.2 -0.8 1.68 -0.8 s1.72 0.12 1.72 0.8 l0 0.04 c2.44 0 4.88 0.28 6.92 1.76 s3.2 3.52 3.4 6.04 z M60.101 29.64 c1.88 -0.44 3.44 -1.44 4.68 -2.92 s1.88 -3.24 1.88 -5.2 c0 -1.32 -0.4 -2.64 -1.16 -3.96 s-1.8 -2.2 -3.2 -2.56 c-0.84 -0.2 -1.72 -0.32 -2.56 -0.32 c0 5.08 0 10 -0.28 15.08 c0.24 -0.08 0.44 -0.12 0.64 -0.12 z M88.348 16.96 c0.32 1.44 0.44 2.84 0.4 4.16 c0 0.68 -1.2 0.8 -1.68 0.8 s-1.72 -0.12 -1.72 -0.8 c0.04 -1.08 0 -2.08 -0.16 -3.08 c-0.2 -1.04 -0.56 -1.96 -1.08 -2.8 l-0.48 -0.68 c-0.12 -0.12 -0.36 -0.2 -0.64 -0.2 l-0.28 0 c-0.64 0.12 -1.24 0.6 -1.8 1.36 c-0.52 0.76 -0.96 1.44 -1.24 2 c-1.84 3.48 -2.88 7.2 -3.16 11.16 c-0.08 0.76 -0.08 1.68 -0.04 2.84 c0.04 1.36 0.36 2.8 0.88 4.36 c0.56 1.56 1.52 2.64 2.88 3.28 c0.36 0.2 0.76 0.28 1.12 0.28 c0.84 0 1.44 -0.52 1.8 -1.56 c0.28 -0.88 0.52 -1.72 0.64 -2.48 c0.28 -1.68 0.36 -3.36 0.24 -5.04 c-1.08 0.12 -2 0.4 -2.84 0.84 c-0.12 0.12 -0.28 0.16 -0.52 0.16 c-0.52 0 -0.92 -0.28 -1.12 -0.84 c-0.2 -0.6 -0.04 -1 0.52 -1.28 c1.92 -0.92 3.56 -1.2 5.64 -1.2 c0.12 0.04 0.32 0.04 0.6 0.04 c0.36 0.04 0.64 0.2 0.84 0.48 s0.28 0.6 0.24 0.88 c0.12 1.16 0.16 2.4 0.12 3.8 c-0.12 3.76 -1.6 8 -5.96 8 c-2.52 0 -4.44 -0.84 -5.8 -2.56 c-1.32 -1.72 -2.16 -3.72 -2.48 -5.96 c-0.2 -1.48 -0.28 -2.84 -0.16 -4.04 c0.32 -4.6 2.4 -13.24 6.88 -15.68 c0.92 -0.52 1.96 -0.76 3.08 -0.76 c2.84 0 4.64 1.84 5.28 4.52 z M107.235 13.16 c0.12 -0.76 1.12 -0.8 1.72 -0.8 c0.48 0 1.72 0.12 1.72 0.8 c-0.28 4.36 -0.56 8.72 -0.88 13.04 c-0.32 4.24 -0.24 8.56 0.2 13 c0.04 0.28 -0.12 0.48 -0.48 0.6 c-0.4 0.12 -0.8 0.2 -1.2 0.2 c-0.6 0 -1.6 -0.12 -1.72 -0.8 c-0.12 -0.92 -0.16 -1.8 -0.2 -2.72 l-0.12 -2.76 c-0.92 1.4 -2.16 2.84 -3.64 4.24 c-1.52 1.44 -3.2 2.16 -5.04 2.16 c-1.68 0 -2.92 -0.72 -3.68 -2.16 c-0.8 -1.4 -1.24 -2.92 -1.32 -4.56 c-0.2 -3.24 -0.08 -6.6 0.32 -10.04 c0.44 -3.36 0.76 -6.64 1.04 -10 c0.12 -0.76 1.12 -0.8 1.72 -0.8 c0.4 0 0.8 0.08 1.2 0.2 c0.36 0.12 0.52 0.32 0.48 0.6 c-0.28 2.88 -0.48 5.6 -0.76 8.44 s-0.48 5.68 -0.6 8.52 c-0.04 0.8 -0.08 1.6 -0.04 2.4 c0 1.44 0.16 5.08 2.08 5.08 c1.24 0 2.64 -1.28 3.44 -2.08 c1.92 -1.84 3.52 -4.04 4.8 -6.6 c0.12 -2.72 0.24 -5.28 0.44 -8 c0.2 -2.68 0.4 -5.24 0.52 -7.96 z M129.522 15.760000000000002 c0.6 1.72 0.88 3.44 0.76 5.08 c0 0.76 -1.16 0.84 -1.68 0.84 c-0.44 0 -0.84 -0.08 -1.2 -0.24 c-0.36 -0.12 -0.56 -0.32 -0.52 -0.6 c0.04 -0.44 0 -1.04 -0.04 -1.8 c-0.16 -1.4 -0.44 -2.72 -1.2 -3.96 c-0.36 -0.52 -0.76 -0.76 -1.24 -0.76 c-2.88 0 -5.52 8.28 -6.16 11.2 c-0.2 0.84 -0.32 1.72 -0.44 2.56 l5.56 0 c0.36 0 0.64 0.12 0.84 0.36 c0.16 0.24 0.24 0.48 0.24 0.76 s-0.08 0.56 -0.24 0.8 c-0.2 0.24 -0.48 0.36 -0.84 0.36 l-5.64 0 c0.04 0.92 0.16 1.84 0.36 2.76 c0.52 1.88 1.48 3.36 2.88 4.4 c0.76 0.52 1.36 0.8 1.8 0.8 c0.76 0 1.36 -0.44 1.76 -1.36 c0.36 -0.92 0.64 -1.64 0.76 -2.24 c0.12 -0.76 1.12 -0.8 1.72 -0.8 c0.44 0 0.84 0.08 1.24 0.2 c0.36 0.16 0.48 0.36 0.44 0.6 c-0.76 3.08 -2.28 5.36 -5.68 5.36 c-1.76 0 -3.4 -0.56 -4.96 -1.72 s-2.6 -2.6 -3.12 -4.28 c-0.56 -1.76 -0.76 -3.64 -0.6 -5.6 c0.32 -4.48 2.52 -11.32 6.08 -14.44 c1.08 -0.96 2.44 -1.44 4 -1.44 c2.24 0 4.28 0.92 5.12 3.16 z M148.089 20.92 c0.2 2.68 -0.52 4.84 -2.24 6.56 s-3.76 2.92 -6.12 3.52 c2.04 2.68 4.44 5.08 7.12 7.12 c0.52 0.36 0.64 0.84 0.44 1.36 c-0.2 0.56 -0.52 0.84 -0.96 0.84 c-0.2 0 -0.4 -0.08 -0.6 -0.24 c-3.2 -2.4 -5.96 -5.2 -8.32 -8.44 c-0.04 1.32 -0.08 2.6 -0.2 3.88 c-0.12 1.32 -0.12 2.6 -0.24 3.92 c-0.04 0.28 -0.2 0.48 -0.56 0.64 c-0.32 0.12 -0.72 0.16 -1.16 0.16 c-0.36 0 -0.76 -0.08 -1.16 -0.2 c-0.36 -0.12 -0.56 -0.32 -0.52 -0.6 c0.28 -4.44 0.52 -8.8 0.64 -13.16 s0.2 -8.72 0.16 -13.2 c0 -0.68 1.2 -0.8 1.68 -0.8 s1.72 0.12 1.72 0.8 l0 0.04 c2.44 0 4.88 0.28 6.92 1.76 s3.2 3.52 3.4 6.04 z M138.129 29.64 c1.88 -0.44 3.44 -1.44 4.68 -2.92 s1.88 -3.24 1.88 -5.2 c0 -1.32 -0.4 -2.64 -1.16 -3.96 s-1.8 -2.2 -3.2 -2.56 c-0.84 -0.2 -1.72 -0.32 -2.56 -0.32 c0 5.08 0 10 -0.28 15.08 c0.24 -0.08 0.44 -0.12 0.64 -0.12 z" fill="#111111"></path></g></svg>