<svg xmlns:xlink="http://www.w3.org/1999/xlink" xmlns="http://www.w3.org/2000/svg" class="css-ze2te4 css-qd6ojx" viewBox="0 0 125 111.11111111111111" width="125"  height="111.11111111111111" ><g transform="translate(-11.574074074074074, -20.833333333333336) scale(2.314814814814815)" class="css-siygg0" fill="#280B45"><g xmlns="http://www.w3.org/2000/svg" fill="#280B45"><path d="M15.659,32.307C15.663,32.293,16.098,31,17.609,31c0.859,0,1.8,1.141,2.062,1.543c0,0,0.001,0,0.001,0.001   C19.838,32.8,21.32,35,23.414,35c2.362,0,3.554-1.762,3.854-2.693c0.004-0.013,0.419-1.208,1.808-1.292   c0.831,0.082,1.709,1.14,1.963,1.526c0,0,0,0,0,0.001C31.201,32.794,32.686,35,34.781,35c2.362,0,3.554-1.762,3.854-2.693   C38.64,32.293,39.074,31,40.586,31c0.859,0,1.802,1.144,2.063,1.545l0,0C42.818,32.805,44.299,35,46.391,35   c2.362,0,3.554-1.762,3.854-2.693C50.249,32.293,50.684,31,52.195,31c0.858,0,1.797,1.138,2.062,1.541c0,0,0,0,0,0.001   C54.419,32.793,55.902,35,58,35c0.553,0,1-0.448,1-1s-0.447-1-1-1c-0.857,0-1.795-1.135-2.061-1.539c0-0.001,0-0.002-0.001-0.003   C55.775,31.207,54.292,29,52.195,29c-2.362,0-3.554,1.762-3.854,2.693C48.337,31.707,47.902,33,46.391,33   c-0.859,0-1.8-1.141-2.062-1.543c0,0-0.001,0-0.001-0.001C44.162,31.2,42.68,29,40.586,29c-2.362,0-3.554,1.762-3.854,2.693   C36.728,31.707,36.293,33,34.781,33c-0.859,0-1.802-1.144-2.063-1.545l0,0c-0.15-0.232-1.356-2.003-3.107-2.375   C29.49,29.029,29.357,29,29.219,29c-0.05,0-0.091,0.012-0.139,0.013C29.044,29.012,29.013,29,28.977,29   c-0.074,0-0.139,0.027-0.208,0.042c-2.056,0.211-3.124,1.783-3.404,2.651C25.36,31.707,24.926,33,23.414,33   c-0.859,0-1.802-1.144-2.063-1.545l0,0C21.182,31.195,19.701,29,17.609,29c-2.362,0-3.554,1.762-3.854,2.693   C13.751,31.707,13.316,33,11.805,33c-0.859,0-1.802-1.144-2.063-1.545l0,0C9.573,31.195,8.093,29,6,29c-0.553,0-1,0.448-1,1   s0.447,1,1,1c0.859,0,1.798,1.139,2.062,1.542c0,0,0,0,0,0.001C8.225,32.794,9.709,35,11.805,35   C14.167,35,15.358,33.238,15.659,32.307z" fill="#280B45"></path><circle cx="35" cy="14" r="1" fill="#280B45"></circle><circle cx="43" cy="23.25" r="1" fill="#280B45"></circle><circle cx="40" cy="18.25" r="1" fill="#280B45"></circle><circle cx="35" cy="23.25" r="1" fill="#280B45"></circle><circle cx="47" cy="20.25" r="1" fill="#280B45"></circle><circle cx="26" cy="23.25" r="1" fill="#280B45"></circle><circle cx="23" cy="16.25" r="1" fill="#280B45"></circle><circle cx="18" cy="21.25" r="1" fill="#280B45"></circle><circle cx="30" cy="18.25" r="1" fill="#280B45"></circle><path d="M29.219,29H32c0.553,0,1-0.448,1-1s-0.447-1-1-1H10.046C10.768,18.367,20.714,11,32,11s21.232,7.367,21.954,16H50   c-0.553,0-1,0.448-1,1s0.447,1,1,1h2.195H55c0.553,0,1-0.448,1-1C56,17.701,45.01,9,32,9S8,17.701,8,28c0,0.552,0.447,1,1,1h8.609   h11.367H29.219z" fill="#280B45"></path><path d="M47,28c0-0.552-0.447-1-1-1H36c-0.553,0-1,0.448-1,1s0.447,1,1,1h4.586H46C46.553,29,47,28.552,47,28z" fill="#280B45"></path><path d="M52.393,35h-1.538h-4.464H34.781H23.414h-10.56h-1.05h-0.197C7.964,35,5,37.691,5,41c0,2.1,1.196,3.948,3,5.021v6.805   C8,55.127,9.78,57,11.968,57h40.064C54.22,57,56,55.127,56,52.826v-6.805c1.804-1.072,3-2.92,3-5.021   C59,37.691,56.036,35,52.393,35z M48.222,37L32.854,50.641c-0.521,0.464-1.479,0.464-2.001,0l-7.682-6.818   c-0.187-0.166-0.424-0.252-0.664-0.252c-0.139,0-0.278,0.029-0.41,0.088c-0.358,0.162-0.59,0.519-0.59,0.912v4.001   c0,0.709-0.499,1.286-1.111,1.286s-1.111-0.577-1.111-1.286v-7.75c0-0.286-0.122-0.558-0.336-0.748L15.487,37H48.222z M11.607,37   h0.867l4.811,4.271V45h-5.678C9.066,45,7,43.206,7,41S9.066,37,11.607,37z M54,47v5.826C54,54.024,53.117,55,52.032,55H11.968   C10.883,55,10,54.024,10,52.826V47h1.607h5.678v1.571c0,1.812,1.396,3.286,3.111,3.286s3.111-1.474,3.111-3.286v-1.776l6.019,5.342   C30.154,52.694,30.981,53,31.854,53s1.7-0.307,2.328-0.863L39.97,47h12.423H54z M52.393,45h-10.17l9.012-8h1.158   C54.934,37,57,38.794,57,41S54.934,45,52.393,45z" fill="#280B45"></path></g></g></svg>