<svg xmlns:xlink="http://www.w3.org/1999/xlink" xmlns="http://www.w3.org/2000/svg" viewBox="0 0 369.93442622950823 45.46509252986923" preserveAspectRatio="xMidYMid meet" class="css-116ckqy" id="ehcefhdd" width="369.93442622950823"  height="45.46509252986923" ><defs id="SvgjsDefs12575"><linearGradient id="SvgjsLinearGradient12582"><stop id="SvgjsStop12583" stop-color="#8f5e25" offset="0"></stop><stop id="SvgjsStop12584" stop-color="#fbf4a1" offset="0.5"></stop><stop id="SvgjsStop12585" stop-color="#8f5e25" offset="1"></stop></linearGradient><linearGradient id="SvgjsLinearGradient12586"><stop id="SvgjsStop12587" stop-color="#8f5e25" offset="0"></stop><stop id="SvgjsStop12588" stop-color="#fbf4a1" offset="0.5"></stop><stop id="SvgjsStop12589" stop-color="#8f5e25" offset="1"></stop></linearGradient><linearGradient id="SvgjsLinearGradient12582"><stop id="SvgjsStop12583" stop-color="#8f5e25" offset="0"></stop><stop id="SvgjsStop12584" stop-color="#fbf4a1" offset="0.5"></stop><stop id="SvgjsStop12585" stop-color="#8f5e25" offset="1"></stop></linearGradient><linearGradient id="SvgjsLinearGradient12582"><stop id="SvgjsStop12583" stop-color="#8f5e25" offset="0"></stop><stop id="SvgjsStop12584" stop-color="#fbf4a1" offset="0.5"></stop><stop id="SvgjsStop12585" stop-color="#8f5e25" offset="1"></stop></linearGradient><linearGradient id="SvgjsLinearGradient12582"><stop id="SvgjsStop12583" stop-color="#8f5e25" offset="0"></stop><stop id="SvgjsStop12584" stop-color="#fbf4a1" offset="0.5"></stop><stop id="SvgjsStop12585" stop-color="#8f5e25" offset="1"></stop></linearGradient><linearGradient id="SvgjsLinearGradient12582"><stop id="SvgjsStop12583" stop-color="#8f5e25" offset="0"></stop><stop id="SvgjsStop12584" stop-color="#fbf4a1" offset="0.5"></stop><stop id="SvgjsStop12585" stop-color="#8f5e25" offset="1"></stop></linearGradient><linearGradient id="SvgjsLinearGradient12582"><stop id="SvgjsStop12583" stop-color="#8f5e25" offset="0"></stop><stop id="SvgjsStop12584" stop-color="#fbf4a1" offset="0.5"></stop><stop id="SvgjsStop12585" stop-color="#8f5e25" offset="1"></stop></linearGradient><linearGradient id="SvgjsLinearGradient12582"><stop id="SvgjsStop12583" stop-color="#8f5e25" offset="0"></stop><stop id="SvgjsStop12584" stop-color="#fbf4a1" offset="0.5"></stop><stop id="SvgjsStop12585" stop-color="#8f5e25" offset="1"></stop></linearGradient><linearGradient id="SvgjsLinearGradient12582"><stop id="SvgjsStop12583" stop-color="#8f5e25" offset="0"></stop><stop id="SvgjsStop12584" stop-color="#fbf4a1" offset="0.5"></stop><stop id="SvgjsStop12585" stop-color="#8f5e25" offset="1"></stop></linearGradient><linearGradient id="SvgjsLinearGradient12582"><stop id="SvgjsStop12583" stop-color="#8f5e25" offset="0"></stop><stop id="SvgjsStop12584" stop-color="#fbf4a1" offset="0.5"></stop><stop id="SvgjsStop12585" stop-color="#8f5e25" offset="1"></stop></linearGradient><linearGradient id="SvgjsLinearGradient12582"><stop id="SvgjsStop12583" stop-color="#8f5e25" offset="0"></stop><stop id="SvgjsStop12584" stop-color="#fbf4a1" offset="0.5"></stop><stop id="SvgjsStop12585" stop-color="#8f5e25" offset="1"></stop></linearGradient><linearGradient id="SvgjsLinearGradient12582"><stop id="SvgjsStop12583" stop-color="#8f5e25" offset="0"></stop><stop id="SvgjsStop12584" stop-color="#fbf4a1" offset="0.5"></stop><stop id="SvgjsStop12585" stop-color="#8f5e25" offset="1"></stop></linearGradient><linearGradient id="SvgjsLinearGradient12582"><stop id="SvgjsStop12583" stop-color="#8f5e25" offset="0"></stop><stop id="SvgjsStop12584" stop-color="#fbf4a1" offset="0.5"></stop><stop id="SvgjsStop12585" stop-color="#8f5e25" offset="1"></stop></linearGradient><linearGradient id="SvgjsLinearGradient12582"><stop id="SvgjsStop12583" stop-color="#8f5e25" offset="0"></stop><stop id="SvgjsStop12584" stop-color="#fbf4a1" offset="0.5"></stop><stop id="SvgjsStop12585" stop-color="#8f5e25" offset="1"></stop></linearGradient><linearGradient id="SvgjsLinearGradient12582"><stop id="SvgjsStop12583" stop-color="#8f5e25" offset="0"></stop><stop id="SvgjsStop12584" stop-color="#fbf4a1" offset="0.5"></stop><stop id="SvgjsStop12585" stop-color="#8f5e25" offset="1"></stop></linearGradient><linearGradient id="SvgjsLinearGradient12582"><stop id="SvgjsStop12583" stop-color="#8f5e25" offset="0"></stop><stop id="SvgjsStop12584" stop-color="#fbf4a1" offset="0.5"></stop><stop id="SvgjsStop12585" stop-color="#8f5e25" offset="1"></stop></linearGradient><linearGradient id="SvgjsLinearGradient12582"><stop id="SvgjsStop12583" stop-color="#8f5e25" offset="0"></stop><stop id="SvgjsStop12584" stop-color="#fbf4a1" offset="0.5"></stop><stop id="SvgjsStop12585" stop-color="#8f5e25" offset="1"></stop></linearGradient><linearGradient id="SvgjsLinearGradient12582"><stop id="SvgjsStop12583" stop-color="#8f5e25" offset="0"></stop><stop id="SvgjsStop12584" stop-color="#fbf4a1" offset="0.5"></stop><stop id="SvgjsStop12585" stop-color="#8f5e25" offset="1"></stop></linearGradient><linearGradient id="SvgjsLinearGradient12586"><stop id="SvgjsStop12587" stop-color="#8f5e25" offset="0"></stop><stop id="SvgjsStop12588" stop-color="#fbf4a1" offset="0.5"></stop><stop id="SvgjsStop12589" stop-color="#8f5e25" offset="1"></stop></linearGradient><linearGradient id="SvgjsLinearGradient12586"><stop id="SvgjsStop12587" stop-color="#8f5e25" offset="0"></stop><stop id="SvgjsStop12588" stop-color="#fbf4a1" offset="0.5"></stop><stop id="SvgjsStop12589" stop-color="#8f5e25" offset="1"></stop></linearGradient></defs><g id="SvgjsG12576" featurekey="symbolFeature-0" transform="matrix(20.043216299161273,0,0,-20.043216299161273,-7.075255654660467,75.83056493637805)" fill="url(&quot;#SvgjsLinearGradient12582&quot;)"><g xmlns="http://www.w3.org/2000/svg" fill="url(&quot;#SvgjsLinearGradient12582&quot;)"><polygon fill="url(&quot;#SvgjsLinearGradient12582&quot;)" points="2.845,2.202 1.594,1.517 1.594,1.515 1.592,1.516 1.588,1.515 1.588,1.516 0.353,1.93 0.353,2.106    1.592,1.692 2.845,2.381  "></polygon><polygon fill="url(&quot;#SvgjsLinearGradient12582&quot;)" points="2.845,2.398 1.594,1.807 1.594,1.804 1.592,1.807 1.59,1.804 1.59,1.807 0.353,2.163 0.353,2.316    1.592,1.958 2.845,2.554  "></polygon><polygon fill="url(&quot;#SvgjsLinearGradient12582&quot;)" points="2.845,2.6 1.594,2.087 1.594,2.086 1.592,2.086 1.592,2.086 1.592,2.086 0.353,2.396 0.353,2.529    1.592,2.221 2.845,2.732  "></polygon><polygon fill="url(&quot;#SvgjsLinearGradient12582&quot;)" points="2.845,2.806 1.597,2.363 1.597,2.36 1.594,2.361 1.592,2.36 1.592,2.361 0.353,2.628 0.353,2.745    1.594,2.477 2.845,2.92  "></polygon><polygon fill="url(&quot;#SvgjsLinearGradient12582&quot;)" points="2.845,2.995 1.597,2.664 1.597,2.663 1.594,2.664 1.594,2.663 1.594,2.664 0.353,2.864    0.353,2.948 1.594,2.749 2.845,3.081  "></polygon><polygon fill="url(&quot;#SvgjsLinearGradient12582&quot;)" points="2.845,3.194 1.599,2.947 1.599,2.947 1.597,2.947 1.594,2.947 1.594,2.947 0.353,3.096    0.353,3.161 1.597,3.01 2.845,3.259  "></polygon><polygon fill="url(&quot;#SvgjsLinearGradient12582&quot;)" points="2.845,3.397 1.601,3.182 1.601,3.182 1.597,3.182 1.597,3.182 1.597,3.182 0.353,3.312    0.353,3.484 2.845,3.484  "></polygon><polygon fill="url(&quot;#SvgjsLinearGradient12582&quot;)" points="4.647,2.712 4.647,2.587 3.773,2.104 3.773,2.104 3.769,2.104 3.767,2.104 3.767,2.104    2.899,2.395 2.899,2.52 3.769,2.229  "></polygon><polygon fill="url(&quot;#SvgjsLinearGradient12582&quot;)" points="4.647,2.831 4.647,2.725 3.773,2.308 3.773,2.307 3.769,2.307 3.769,2.307 3.769,2.307    2.899,2.558 2.899,2.667 3.769,2.415  "></polygon><polygon fill="url(&quot;#SvgjsLinearGradient12582&quot;)" points="4.647,2.959 4.647,2.864 3.773,2.507 3.773,2.503 3.771,2.505 3.769,2.503 3.769,2.507    2.899,2.722 2.899,2.814 3.771,2.599  "></polygon><polygon fill="url(&quot;#SvgjsLinearGradient12582&quot;)" points="4.647,3.09 4.647,3.008 3.773,2.697 3.773,2.697 3.771,2.697 3.769,2.697 3.769,2.697 2.899,2.885    2.899,2.965 3.771,2.777  "></polygon><polygon fill="url(&quot;#SvgjsLinearGradient12582&quot;)" points="4.647,3.202 4.647,3.141 3.773,2.909 3.773,2.909 3.773,2.909 3.771,2.909 3.771,2.909    2.899,3.049 2.899,3.11 3.773,2.968  "></polygon><polygon fill="url(&quot;#SvgjsLinearGradient12582&quot;)" points="4.647,3.325 4.647,3.28 3.775,3.107 3.775,3.107 3.773,3.107 3.773,3.107 3.773,3.107 2.899,3.213    2.899,3.258 3.773,3.152  "></polygon><polygon fill="url(&quot;#SvgjsLinearGradient12582&quot;)" points="4.647,3.424 3.775,3.273 3.775,3.271 3.773,3.271 3.773,3.271 3.773,3.271 2.899,3.364    2.899,3.484 4.647,3.484  "></polygon></g></g><g id="SvgjsG12577" featurekey="nameFeature-0" transform="matrix(0.9673596256069932,0,0,0.9673596256069932,105.61305651877561,-5.571989819815268)" fill="#939393"><path d="M12.38 20 l-1.06 -2.5 l-6.76 0 l-1.06 2.5 l-3.1 0 l6.22 -14 l2.64 0 l6.24 14 l-3.12 0 z M5.58 15.120000000000001 l4.72 0 l-2.36 -5.54 z M28.12 20 l-3.1 0 l-2.98 -4.66 l-0.04 0 l-1.98 0 l0 4.66 l-2.92 0 l0 -14 l4.9 0 c3.14 0 5.18 1.9 5.18 4.76 c0 1.9 -0.92 3.32 -2.48 4.04 z M20.02 8.68 l0 4.14 l1.8 0 c1.44 0 2.44 -0.56 2.44 -2.06 c0 -1.48 -1 -2.08 -2.44 -2.08 l-1.8 0 z M41.68 18.5 c-1.24 1.12 -2.9 1.7 -4.76 1.7 c-3.92 0 -7.3 -2.94 -7.3 -7.2 s3.38 -7.2 7.3 -7.2 c1.84 0 3.48 0.6 4.68 1.66 l-1.76 1.98 c-0.74 -0.52 -1.74 -0.9 -2.76 -0.9 c-2.52 0 -4.42 1.86 -4.42 4.46 s1.9 4.46 4.42 4.46 c1.06 0 2.1 -0.4 2.86 -1 z M52.13999999999999 6 l2.92 0 l0 14 l-2.92 0 l0 -5.66 l-5.64 0 l0 5.66 l-2.92 0 l0 -14 l2.92 0 l0 5.66 l5.64 0 l0 -5.66 z M60.379999999999995 6 l0 14 l-2.92 0 l0 -14 l2.92 0 z M72.28 6 l0 2.68 l-3.48 0 l0 11.32 l-2.92 0 l0 -11.32 l-3.5 0 l0 -2.68 l9.9 0 z M77.2 17.32 l5.92 0 l0 2.68 l-6.32 0 l-2.52 0 l0 -14 l2.92 0 l5.74 0 l0 2.68 l-5.74 0 l0 2.96 l4.34 0 l0 2.64 l-4.34 0 l0 3.04 z M96.97999999999999 18.5 c-1.24 1.12 -2.9 1.7 -4.76 1.7 c-3.92 0 -7.3 -2.94 -7.3 -7.2 s3.38 -7.2 7.3 -7.2 c1.84 0 3.48 0.6 4.68 1.66 l-1.76 1.98 c-0.74 -0.52 -1.74 -0.9 -2.76 -0.9 c-2.52 0 -4.42 1.86 -4.42 4.46 s1.9 4.46 4.42 4.46 c1.06 0 2.1 -0.4 2.86 -1 z M108.38 6 l0 2.68 l-3.48 0 l0 11.32 l-2.92 0 l0 -11.32 l-3.5 0 l0 -2.68 l9.9 0 z M118.27999999999999 6 l2.92 0 l0 8.92 c0 3.4 -2.46 5.38 -5.4 5.38 s-5.42 -1.98 -5.42 -5.38 l0 -8.92 l2.92 0 l0 8.94 c0 2.04 1.34 2.62 2.5 2.62 c1.14 0 2.48 -0.58 2.48 -2.62 l0 -8.94 z M134.62 20 l-3.1 0 l-2.98 -4.66 l-0.04 0 l-1.98 0 l0 4.66 l-2.92 0 l0 -14 l4.9 0 c3.14 0 5.18 1.9 5.18 4.76 c0 1.9 -0.92 3.32 -2.48 4.04 z M126.52 8.68 l0 4.14 l1.8 0 c1.44 0 2.44 -0.56 2.44 -2.06 c0 -1.48 -1 -2.08 -2.44 -2.08 l-1.8 0 z M139.34 17.32 l5.92 0 l0 2.68 l-6.32 0 l-2.52 0 l0 -14 l2.92 0 l5.74 0 l0 2.68 l-5.74 0 l0 2.96 l4.34 0 l0 2.64 l-4.34 0 l0 3.04 z M164.54 20 l-1.06 -2.5 l-6.76 0 l-1.06 2.5 l-3.1 0 l6.22 -14 l2.64 0 l6.24 14 l-3.12 0 z M157.74 15.120000000000001 l4.72 0 l-2.36 -5.54 z M178.42000000000002 6 l2.92 0 l0 14 l-2.22 0 l-6.94 -8.68 l0 8.68 l-2.92 0 l0 -14 l2.26 0 l6.9 8.7 l0 -8.7 z M188.73999999999998 6 c3.98 0 7.1 3.12 7.1 6.92 c0 3.96 -3.12 7.08 -7.1 7.08 l-5 0 l0 -14 l5 0 z M188.72 17.240000000000002 c2.68 0 4.12 -1.94 4.12 -4.32 c0 -2.22 -1.44 -4.16 -4.12 -4.16 l-2.06 0 l0 8.48 l2.06 0 z M208.83999999999997 6 c3.98 0 7.1 3.12 7.1 6.92 c0 3.96 -3.12 7.08 -7.1 7.08 l-5 0 l0 -14 l5 0 z M208.82 17.240000000000002 c2.68 0 4.12 -1.94 4.12 -4.32 c0 -2.22 -1.44 -4.16 -4.12 -4.16 l-2.06 0 l0 8.48 l2.06 0 z M220.85999999999999 17.32 l5.92 0 l0 2.68 l-6.32 0 l-2.52 0 l0 -14 l2.92 0 l5.74 0 l0 2.68 l-5.74 0 l0 2.96 l4.34 0 l0 2.64 l-4.34 0 l0 3.04 z M233.45999999999998 5.76 c2.46 0 4.02 1.54 4.76 2.9 l-2.16 1.28 c-0.76 -1.06 -1.5 -1.6 -2.6 -1.6 c-0.98 0 -1.7 0.58 -1.7 1.38 s0.46 1.22 1.56 1.62 l0.96 0.34 c3.1 1.1 4.32 2.48 4.32 4.4 c0 2.82 -2.68 4.22 -5.06 4.22 c-2.52 0 -4.48 -1.5 -5.16 -3.46 l2.24 -1.18 c0.5 1.02 1.34 2 2.92 2 c1.14 0 2.02 -0.5 2.02 -1.54 c0 -1 -0.6 -1.44 -2.12 -2.02 l-0.86 -0.3 c-2.06 -0.74 -3.72 -1.76 -3.72 -4.2 c0 -2.24 2.1 -3.84 4.6 -3.84 z M243.42 6 l0 14 l-2.92 0 l0 -14 l2.92 0 z M259 12.559999999999999 c0.62 4.7 -2.44 7.64 -6.22 7.64 c-3.98 0 -7.26 -2.94 -7.26 -7.2 s3.36 -7.2 7.26 -7.2 c1.86 0 3.5 0.6 4.7 1.66 l-1.76 1.98 c-0.74 -0.52 -1.74 -0.9 -2.76 -0.9 c-2.54 0 -4.4 1.86 -4.4 4.46 s1.8 4.46 4.22 4.46 c1.84 0 3.12 -0.66 3.52 -2.42 l-3.3 0 l0 -2.48 l6 0 z M270.32 6 l2.92 0 l0 14 l-2.22 0 l-6.94 -8.68 l0 8.68 l-2.92 0 l0 -14 l2.26 0 l6.9 8.7 l0 -8.7 z" fill="#939393"></path></g><g id="SvgjsG12578" featurekey="sloganFeature-0" transform="matrix(1.0871553409566017,0,0,1.0871553409566017,103.60825819805586,21.95560039990439)" fill="url(&quot;#SvgjsLinearGradient12586&quot;)"><path d="M4.38 14.02 l0 5.98 l-2.18 0 l0 -14.92 l10.5 0 l0 2.2 l-8.32 0 l0 4.52 q0.62 -0.36 1.38 -0.48 q0.56 -0.1 1.44 -0.1 l3.26 0 l0 2.22 l-3.26 0 q-0.82 0 -1.44 0.1 q-0.76 0.14 -1.38 0.48 z M18.28 14.02 l0 3.8 l9.2 0 l0 2.18 l-11.38 0 l0 -14.92 l10.5 0 l0 2.2 l-8.32 0 l0 4.52 q0.62 -0.36 1.38 -0.48 q0.56 -0.1 1.44 -0.1 l3.26 0 l0 2.22 l-3.26 0 q-0.82 0 -1.44 0.1 q-0.76 0.14 -1.38 0.48 z M42.58 15.46 q0 1.46 -0.88 2.6 q-0.86 1.08 -2.37 1.68 t-3.41 0.6 q-1.74 0 -3.38 -0.81 t-2.76 -2.25 l1.56 -1.46 q1.94 2.34 4.58 2.34 q1.16 0 2.12 -0.28 q1.06 -0.32 1.64 -0.9 q0.66 -0.64 0.66 -1.52 q0 -1.06 -0.66 -1.6 q-0.56 -0.46 -1.66 -0.6 q-0.64 -0.08 -2.1 -0.08 q-2.68 0 -4.09 -0.98 t-1.41 -2.88 q0 -1.2 0.71 -2.28 t1.95 -1.72 q1.28 -0.68 2.84 -0.68 q1.76 0 3.18 0.54 q1.52 0.58 2.82 1.82 l-1.36 1.6 q-1.22 -0.98 -2.22 -1.37 t-2.42 -0.39 q-0.82 0 -1.53 0.34 t-1.13 0.91 t-0.42 1.21 q0 1.72 3.18 1.72 q2.54 0 4.02 0.52 q1.4 0.5 2 1.52 q0.54 0.9 0.54 2.4 z M47.92 20 l-2.14 0 l0 -14.92 l2.14 0 l0 14.92 z M63.42 7.279999999999999 l-5.26 0 l0 12.72 l-2.12 0 l0 -12.72 l-5.32 0 l0 -2.2 l12.7 0 l0 2.2 z M68.36 20 l-2.14 0 l0 -14.92 l2.14 0 l0 14.92 z M86.16 5.08 l-6.26 14.92 l-2.58 0 l-6.16 -14.92 l2.36 0 l5.1 12.48 l5.14 -12.48 l2.4 0 z M93.62 6.66 l-0.82 -1.84 l2.4 0 l7.18 15.18 l-2.44 0 l-0.98 -2.18 l-4.54 0 q-1.28 0 -2.3 0.24 q-0.9 0.22 -1.5 0.58 q-0.54 0.32 -0.72 0.66 l-0.38 0.7 l-2.36 0 z M95.22 15.620000000000001 l2.76 0 l-3.26 -6.3 l-3.3 7.14 q0.44 -0.38 1.34 -0.6 q1.02 -0.24 2.46 -0.24 z M115.64 20 l-10.46 0 l0 -14.92 l2.18 0 l0 12.74 l8.28 0 l0 2.18 z" fill="url(&quot;#SvgjsLinearGradient12586&quot;)"></path></g></svg>