<svg xmlns:xlink="http://www.w3.org/1999/xlink" xmlns="http://www.w3.org/2000/svg" viewBox="0 0 369.6695278969957 64.16209449339651" preserveAspectRatio="xMidYMid meet" class="css-ata32y" id="ehefhabg" width="369.6695278969957"  height="64.16209449339651" ><defs id="SvgjsDefs1369"><linearGradient id="SvgjsLinearGradient1376"><stop id="SvgjsStop1377" stop-color="#834f2a" offset="0"></stop><stop id="SvgjsStop1378" stop-color="#dba173" offset="0.5"></stop><stop id="SvgjsStop1379" stop-color=" #834F2A" offset="1"></stop></linearGradient><linearGradient id="SvgjsLinearGradient1380"><stop id="SvgjsStop1381" stop-color="#834f2a" offset="0"></stop><stop id="SvgjsStop1382" stop-color="#dba173" offset="0.5"></stop><stop id="SvgjsStop1383" stop-color=" #834F2A" offset="1"></stop></linearGradient><linearGradient id="SvgjsLinearGradient1376"><stop id="SvgjsStop1377" stop-color="#834f2a" offset="0"></stop><stop id="SvgjsStop1378" stop-color="#dba173" offset="0.5"></stop><stop id="SvgjsStop1379" stop-color=" #834F2A" offset="1"></stop></linearGradient><linearGradient id="SvgjsLinearGradient1376"><stop id="SvgjsStop1377" stop-color="#834f2a" offset="0"></stop><stop id="SvgjsStop1378" stop-color="#dba173" offset="0.5"></stop><stop id="SvgjsStop1379" stop-color=" #834F2A" offset="1"></stop></linearGradient><linearGradient id="SvgjsLinearGradient1376"><stop id="SvgjsStop1377" stop-color="#834f2a" offset="0"></stop><stop id="SvgjsStop1378" stop-color="#dba173" offset="0.5"></stop><stop id="SvgjsStop1379" stop-color=" #834F2A" offset="1"></stop></linearGradient><linearGradient id="SvgjsLinearGradient1376"><stop id="SvgjsStop1377" stop-color="#834f2a" offset="0"></stop><stop id="SvgjsStop1378" stop-color="#dba173" offset="0.5"></stop><stop id="SvgjsStop1379" stop-color=" #834F2A" offset="1"></stop></linearGradient><linearGradient id="SvgjsLinearGradient1376"><stop id="SvgjsStop1377" stop-color="#834f2a" offset="0"></stop><stop id="SvgjsStop1378" stop-color="#dba173" offset="0.5"></stop><stop id="SvgjsStop1379" stop-color=" #834F2A" offset="1"></stop></linearGradient><linearGradient id="SvgjsLinearGradient1376"><stop id="SvgjsStop1377" stop-color="#834f2a" offset="0"></stop><stop id="SvgjsStop1378" stop-color="#dba173" offset="0.5"></stop><stop id="SvgjsStop1379" stop-color=" #834F2A" offset="1"></stop></linearGradient><linearGradient id="SvgjsLinearGradient1380"><stop id="SvgjsStop1381" stop-color="#834f2a" offset="0"></stop><stop id="SvgjsStop1382" stop-color="#dba173" offset="0.5"></stop><stop id="SvgjsStop1383" stop-color=" #834F2A" offset="1"></stop></linearGradient><linearGradient id="SvgjsLinearGradient1380"><stop id="SvgjsStop1381" stop-color="#834f2a" offset="0"></stop><stop id="SvgjsStop1382" stop-color="#dba173" offset="0.5"></stop><stop id="SvgjsStop1383" stop-color=" #834F2A" offset="1"></stop></linearGradient></defs><g id="SvgjsG1370" featurekey="symbolFeature-0" transform="matrix(0.050429015350441725,0,0,0.050429015350441725,-0.023953777482174147,-0.023953777482174147)" fill="url(&quot;#SvgjsLinearGradient1376&quot;)"><g xmlns="http://www.w3.org/2000/svg" fill="url(&quot;#SvgjsLinearGradient1376&quot;)">    <path d="M559,1102.5l10.6-10.6L36.7,559L559,36.7L1081.2,559l-532.8,532.8L559,1102.5l10.6-10.6L559,1102.5l10.6,10.6l543.4-543.4   c2.8-2.8,4.4-6.7,4.4-10.6c0-4-1.6-7.8-4.4-10.6L569.6,4.9c-5.9-5.9-15.4-5.9-21.2,0L4.9,548.4c-5.9,5.9-5.9,15.4,0,21.2   l543.5,543.5c2.8,2.8,6.7,4.4,10.6,4.4s7.8-1.6,10.6-4.4L559,1102.5z" fill="url(&quot;#SvgjsLinearGradient1376&quot;)"></path>    <path d="M559,937.8l10.6,10.6l378.8-378.7c2.8-2.8,4.4-6.7,4.4-10.6c0-4-1.6-7.8-4.4-10.6L569.6,169.6c-2.8-2.8-6.7-4.4-10.6-4.4   c-4,0-7.8,1.6-10.6,4.4L169.7,548.4c-5.9,5.9-5.9,15.4,0,21.2l378.7,378.8c2.8,2.8,6.7,4.4,10.6,4.4c4,0,7.8-1.6,10.6-4.4   L559,937.8l10.6-10.6L201.5,559L559,201.5L916.6,559L548.4,927.2L559,937.8l10.6-10.6L559,937.8z M773.1,559l-10.6-10.6L559,751.9   L366.2,559L559,366.2l203.4,203.5L773.1,559l-10.6-10.6L773.1,559l10.6-10.6l-214-214.1c-2.8-2.8-6.7-4.4-10.6-4.4   c-4,0-7.8,1.6-10.6,4.4L334.4,548.4c-5.9,5.9-5.9,15.4,0,21.2l214,214c5.9,5.9,15.4,5.9,21.2,0l214.1-214c5.9-5.9,5.9-15.4,0-21.2   L773.1,559z" fill="url(&quot;#SvgjsLinearGradient1376&quot;)"></path>    <path d="M509.7,559l10.6,10.6l38.8-38.8l28.2,28.2l-28.2,28.2l-38.8-38.8L509.7,559l10.6,10.6L509.7,559l-10.6,10.6l49.4,49.4   c2.8,2.8,6.7,4.4,10.6,4.4c4,0,7.8-1.6,10.6-4.4l49.4-49.4c2.8-2.8,4.4-6.7,4.4-10.6c0-4-1.6-7.8-4.4-10.6l-49.4-49.4   c-5.9-5.9-15.4-5.9-21.2,0l-49.4,49.4c-5.9,5.9-5.9,15.4,0,21.2L509.7,559z" fill="url(&quot;#SvgjsLinearGradient1376&quot;)"></path>    <path d="M559,1102.4l10.6-10.6L103.8,626.1c-5.9-5.9-15.4-5.9-21.2,0L5,703.7c-2.8,2.8-4.4,6.7-4.4,10.6c0,4,1.6,7.8,4.4,10.6   l543.4,543.5c2.8,2.8,6.7,4.4,10.6,4.4c4,0,7.8-1.6,10.6-4.4l543.5-543.5c2.8-2.8,4.4-6.7,4.4-10.6c0-4-1.6-7.8-4.4-10.6   l-77.6-77.6c-5.9-5.9-15.4-5.9-21.2,0l-465.8,465.8L559,1102.4l10.6-10.6L559,1102.4l10.6,10.6l455.2-455.2l56.4,56.4L559,1236.5   L36.8,714.3l56.4-56.4l455.2,455.2c5.9,5.9,15.4,5.9,21.2,0L559,1102.4z" fill="url(&quot;#SvgjsLinearGradient1376&quot;)"></path></g></g><g id="SvgjsG1371" featurekey="nameFeature-0" transform="matrix(1.076343274414648,0,0,1.076343274414648,75.56946310082651,3.8002645459780764)" fill="#000000"><path d="M12.38 20 l-1.06 -2.5 l-6.76 0 l-1.06 2.5 l-3.1 0 l6.22 -14 l2.64 0 l6.24 14 l-3.12 0 z M5.58 15.120000000000001 l4.72 0 l-2.36 -5.54 z M28.12 20 l-3.1 0 l-2.98 -4.66 l-0.04 0 l-1.98 0 l0 4.66 l-2.92 0 l0 -14 l4.9 0 c3.14 0 5.18 1.9 5.18 4.76 c0 1.9 -0.92 3.32 -2.48 4.04 z M20.02 8.68 l0 4.14 l1.8 0 c1.44 0 2.44 -0.56 2.44 -2.06 c0 -1.48 -1 -2.08 -2.44 -2.08 l-1.8 0 z M41.68 18.5 c-1.24 1.12 -2.9 1.7 -4.76 1.7 c-3.92 0 -7.3 -2.94 -7.3 -7.2 s3.38 -7.2 7.3 -7.2 c1.84 0 3.48 0.6 4.68 1.66 l-1.76 1.98 c-0.74 -0.52 -1.74 -0.9 -2.76 -0.9 c-2.52 0 -4.42 1.86 -4.42 4.46 s1.9 4.46 4.42 4.46 c1.06 0 2.1 -0.4 2.86 -1 z M52.13999999999999 6 l2.92 0 l0 14 l-2.92 0 l0 -5.66 l-5.64 0 l0 5.66 l-2.92 0 l0 -14 l2.92 0 l0 5.66 l5.64 0 l0 -5.66 z M60.379999999999995 6 l0 14 l-2.92 0 l0 -14 l2.92 0 z M72.28 6 l0 2.68 l-3.48 0 l0 11.32 l-2.92 0 l0 -11.32 l-3.5 0 l0 -2.68 l9.9 0 z M77.2 17.32 l5.92 0 l0 2.68 l-6.32 0 l-2.52 0 l0 -14 l2.92 0 l5.74 0 l0 2.68 l-5.74 0 l0 2.96 l4.34 0 l0 2.64 l-4.34 0 l0 3.04 z M96.97999999999999 18.5 c-1.24 1.12 -2.9 1.7 -4.76 1.7 c-3.92 0 -7.3 -2.94 -7.3 -7.2 s3.38 -7.2 7.3 -7.2 c1.84 0 3.48 0.6 4.68 1.66 l-1.76 1.98 c-0.74 -0.52 -1.74 -0.9 -2.76 -0.9 c-2.52 0 -4.42 1.86 -4.42 4.46 s1.9 4.46 4.42 4.46 c1.06 0 2.1 -0.4 2.86 -1 z M108.38 6 l0 2.68 l-3.48 0 l0 11.32 l-2.92 0 l0 -11.32 l-3.5 0 l0 -2.68 l9.9 0 z M118.27999999999999 6 l2.92 0 l0 8.92 c0 3.4 -2.46 5.38 -5.4 5.38 s-5.42 -1.98 -5.42 -5.38 l0 -8.92 l2.92 0 l0 8.94 c0 2.04 1.34 2.62 2.5 2.62 c1.14 0 2.48 -0.58 2.48 -2.62 l0 -8.94 z M134.62 20 l-3.1 0 l-2.98 -4.66 l-0.04 0 l-1.98 0 l0 4.66 l-2.92 0 l0 -14 l4.9 0 c3.14 0 5.18 1.9 5.18 4.76 c0 1.9 -0.92 3.32 -2.48 4.04 z M126.52 8.68 l0 4.14 l1.8 0 c1.44 0 2.44 -0.56 2.44 -2.06 c0 -1.48 -1 -2.08 -2.44 -2.08 l-1.8 0 z M139.34 17.32 l5.92 0 l0 2.68 l-6.32 0 l-2.52 0 l0 -14 l2.92 0 l5.74 0 l0 2.68 l-5.74 0 l0 2.96 l4.34 0 l0 2.64 l-4.34 0 l0 3.04 z M164.54 20 l-1.06 -2.5 l-6.76 0 l-1.06 2.5 l-3.1 0 l6.22 -14 l2.64 0 l6.24 14 l-3.12 0 z M157.74 15.120000000000001 l4.72 0 l-2.36 -5.54 z M178.42000000000002 6 l2.92 0 l0 14 l-2.22 0 l-6.94 -8.68 l0 8.68 l-2.92 0 l0 -14 l2.26 0 l6.9 8.7 l0 -8.7 z M188.73999999999998 6 c3.98 0 7.1 3.12 7.1 6.92 c0 3.96 -3.12 7.08 -7.1 7.08 l-5 0 l0 -14 l5 0 z M188.72 17.240000000000002 c2.68 0 4.12 -1.94 4.12 -4.32 c0 -2.22 -1.44 -4.16 -4.12 -4.16 l-2.06 0 l0 8.48 l2.06 0 z M208.83999999999997 6 c3.98 0 7.1 3.12 7.1 6.92 c0 3.96 -3.12 7.08 -7.1 7.08 l-5 0 l0 -14 l5 0 z M208.82 17.240000000000002 c2.68 0 4.12 -1.94 4.12 -4.32 c0 -2.22 -1.44 -4.16 -4.12 -4.16 l-2.06 0 l0 8.48 l2.06 0 z M220.85999999999999 17.32 l5.92 0 l0 2.68 l-6.32 0 l-2.52 0 l0 -14 l2.92 0 l5.74 0 l0 2.68 l-5.74 0 l0 2.96 l4.34 0 l0 2.64 l-4.34 0 l0 3.04 z M233.45999999999998 5.76 c2.46 0 4.02 1.54 4.76 2.9 l-2.16 1.28 c-0.76 -1.06 -1.5 -1.6 -2.6 -1.6 c-0.98 0 -1.7 0.58 -1.7 1.38 s0.46 1.22 1.56 1.62 l0.96 0.34 c3.1 1.1 4.32 2.48 4.32 4.4 c0 2.82 -2.68 4.22 -5.06 4.22 c-2.52 0 -4.48 -1.5 -5.16 -3.46 l2.24 -1.18 c0.5 1.02 1.34 2 2.92 2 c1.14 0 2.02 -0.5 2.02 -1.54 c0 -1 -0.6 -1.44 -2.12 -2.02 l-0.86 -0.3 c-2.06 -0.74 -3.72 -1.76 -3.72 -4.2 c0 -2.24 2.1 -3.84 4.6 -3.84 z M243.42 6 l0 14 l-2.92 0 l0 -14 l2.92 0 z M259 12.559999999999999 c0.62 4.7 -2.44 7.64 -6.22 7.64 c-3.98 0 -7.26 -2.94 -7.26 -7.2 s3.36 -7.2 7.26 -7.2 c1.86 0 3.5 0.6 4.7 1.66 l-1.76 1.98 c-0.74 -0.52 -1.74 -0.9 -2.76 -0.9 c-2.54 0 -4.4 1.86 -4.4 4.46 s1.8 4.46 4.22 4.46 c1.84 0 3.12 -0.66 3.52 -2.42 l-3.3 0 l0 -2.48 l6 0 z M270.32 6 l2.92 0 l0 14 l-2.22 0 l-6.94 -8.68 l0 8.68 l-2.92 0 l0 -14 l2.26 0 l6.9 8.7 l0 -8.7 z"></path></g><g id="SvgjsG1372" featurekey="sloganFeature-0" transform="matrix(0.6066358457606184,0,0,0.6066358457606184,75.27203681152736,35.50577854663696)" fill="url(&quot;#SvgjsLinearGradient1380&quot;)"><path d="M10.06 8.66 l-5.86 0 l0 3.06 l4.82 0 l0 2.5 l-4.82 0 l0 5.78 l-3 0 l0 -14 l8.86 0 l0 2.66 z M14.879999999999999 17.32 l5.92 0 l0 2.68 l-6.32 0 l-2.52 0 l0 -14 l2.92 0 l5.74 0 l0 2.68 l-5.74 0 l0 2.96 l4.34 0 l0 2.64 l-4.34 0 l0 3.04 z M27.48 5.76 c2.46 0 4.02 1.54 4.76 2.9 l-2.16 1.28 c-0.76 -1.06 -1.5 -1.6 -2.6 -1.6 c-0.98 0 -1.7 0.58 -1.7 1.38 s0.46 1.22 1.56 1.62 l0.96 0.34 c3.1 1.1 4.32 2.48 4.32 4.4 c0 2.82 -2.68 4.22 -5.06 4.22 c-2.52 0 -4.48 -1.5 -5.16 -3.46 l2.24 -1.18 c0.5 1.02 1.34 2 2.92 2 c1.14 0 2.02 -0.5 2.02 -1.54 c0 -1 -0.6 -1.44 -2.12 -2.02 l-0.86 -0.3 c-2.06 -0.74 -3.72 -1.76 -3.72 -4.2 c0 -2.24 2.1 -3.84 4.6 -3.84 z M43.42 6 l0 2.68 l-3.48 0 l0 11.32 l-2.92 0 l0 -11.32 l-3.5 0 l0 -2.68 l9.9 0 z M48.339999999999996 6 l0 14 l-2.92 0 l0 -14 l2.92 0 z M61.92 6 l3.12 0 l-6.24 14 l-2.64 0 l-6.22 -14 l3.1 0 l4.44 10.42 z M77.82 20 l-1.06 -2.5 l-6.76 0 l-1.06 2.5 l-3.1 0 l6.22 -14 l2.64 0 l6.24 14 l-3.12 0 z M71.02 15.120000000000001 l4.72 0 l-2.36 -5.54 z M85.46000000000001 17.32 l5.5 0 l0 2.68 l-8.42 0 l0 -14 l2.92 0 l0 11.32 z M103.5 5.859999999999999 c3.04 0 4.82 2.08 4.82 4.34 c0 1.96 -0.94 2.84 -3.5 5.94 l-1.08 1.32 l4.6 0 l0 2.54 l-9.72 0 l0 -0.4 l3.56 -4.26 c2.66 -3.22 3.16 -3.88 3.16 -5 c0 -1.56 -1.16 -1.9 -1.84 -1.9 c-0.78 0 -1.82 0.42 -1.82 2.06 l0 0.38 l-2.98 0 l0 -0.38 c0 -2.46 1.62 -4.64 4.8 -4.64 z M115.88 5.800000000000001 c3.14 0 5.76 2.4 5.76 7.2 c0 4.82 -2.62 7.2 -5.76 7.2 c-3.1 0 -5.76 -2.38 -5.76 -7.2 c0 -4.8 2.66 -7.2 5.76 -7.2 z M115.88 8.3 c-2.38 0 -2.98 2.56 -2.98 4.7 c0 2.16 0.6 4.7 2.98 4.7 c2.4 0 3 -2.54 3 -4.7 c0 -2.14 -0.6 -4.7 -3 -4.7 z M128.28 5.859999999999999 c3.04 0 4.82 2.08 4.82 4.34 c0 1.96 -0.94 2.84 -3.5 5.94 l-1.08 1.32 l4.6 0 l0 2.54 l-9.72 0 l0 -0.4 l3.56 -4.26 c2.66 -3.22 3.16 -3.88 3.16 -5 c0 -1.56 -1.16 -1.9 -1.84 -1.9 c-0.78 0 -1.82 0.42 -1.82 2.06 l0 0.38 l-2.98 0 l0 -0.38 c0 -2.46 1.62 -4.64 4.8 -4.64 z M137.02 15.82 c0.66 1.3 1.66 1.88 2.72 1.88 c0.8 0 2.4 -0.36 2.4 -2.38 c0 -1.72 -1.62 -2.9 -4.32 -2.18 l2.74 -4.64 l-5.12 0 l0 -2.5 l9.26 0 l-3.14 5.16 c1.92 0.28 3.5 1.98 3.5 4.16 c0 3.1 -2.42 4.88 -5.36 4.88 c-2.36 0 -4.1 -1.28 -4.9 -3.04 z M158.96 13.32 l0 2.4 l-6.2 0 l0 -2.4 l6.2 0 z M178.24 6 l3.12 0 l-6.24 14 l-2.64 0 l-6.22 -14 l3.1 0 l4.44 10.42 z M185.88000000000002 17.32 l5.92 0 l0 2.68 l-6.32 0 l-2.52 0 l0 -14 l2.92 0 l5.74 0 l0 2.68 l-5.74 0 l0 2.96 l4.34 0 l0 2.64 l-4.34 0 l0 3.04 z M196.82000000000002 17.32 l5.5 0 l0 2.68 l-8.42 0 l0 -14 l2.92 0 l0 11.32 z M214.94 6 l-6.48 11.5 l6.56 0 l0 2.5 l-11.2 0 l6.48 -11.5 l-6.12 0 l0 -2.5 l10.76 0 z M228.68 18.5 c-1.24 1.12 -2.9 1.7 -4.76 1.7 c-3.92 0 -7.3 -2.94 -7.3 -7.2 s3.38 -7.2 7.3 -7.2 c1.84 0 3.48 0.6 4.68 1.66 l-1.76 1.98 c-0.74 -0.52 -1.74 -0.9 -2.76 -0.9 c-2.52 0 -4.42 1.86 -4.42 4.46 s1.9 4.46 4.42 4.46 c1.06 0 2.1 -0.4 2.86 -1 z M239.64 20 l-4.34 -6 l-1.72 1.96 l0 4.04 l-3 0 l0 -14 l3 0 l0 6.1 l5.18 -6.1 l3.6 0 l-5.26 5.96 l5.9 8.04 l-3.36 0 z" fill="url(&quot;#SvgjsLinearGradient1380&quot;)"></path></g></svg>