<?xml version="1.0" encoding="utf-8"?>
<!-- Generator: Adobe Illustrator 27.3.1, SVG Export Plug-In . SVG Version: 6.00 Build 0)  -->
<svg version="1.1" id="Capa_1" xmlns="http://www.w3.org/2000/svg" xmlns:xlink="http://www.w3.org/1999/xlink" x="0px" y="0px"
	 viewBox="0 0 384 512" style="enable-background:new 0 0 384 512;" xml:space="preserve">
<style type="text/css">
	.st0{stroke:#000000;stroke-width:22;stroke-miterlimit:10;}
</style>
<path class="st0" d="M306.5,149.6c7-8.4,5.9-21-2.5-28s-21-5.9-28,2.5l-75.1,90.1c-4.6,5.6-13.2,5.6-17.9,0L108,124.1
	c-7-8.4-19.5-9.6-28-2.5s-9.6,19.5-2.5,28l82.5,99c3.6,4.3,3.6,10.6,0,14.9l-82.5,99c-7,8.4-5.9,21,2.5,28c8.4,7,21,5.9,28-2.5
	l75.1-90.1c4.6-5.6,13.2-5.6,17.9,0l75.1,90.1c7,8.4,19.5,9.6,28,2.5s9.6-19.5,2.5-28l-82.5-99c-3.6-4.3-3.6-10.6,0-14.9
	L306.5,149.6z"/>
</svg>
